<svg width="30" height="31" viewBox="0 0 30 31" fill="none" xmlns="http://www.w3.org/2000/svg">
<path fill-rule="evenodd" clip-rule="evenodd" d="M19.6875 6.8125C19.6875 5.5693 19.1936 4.37701 18.3146 3.49794C17.4355 2.61886 16.2432 2.125 15 2.125C13.7568 2.125 12.5645 2.61886 11.6854 3.49794C10.8064 4.37701 10.3125 5.5693 10.3125 6.8125V7.75H19.6875V6.8125ZM21.5625 6.8125V7.75H26.125C27.2296 7.75 28.125 8.64543 28.125 9.75V26.5C28.125 27.4946 27.7299 28.4484 27.0266 29.1516C26.3234 29.8549 25.3696 30.25 24.375 30.25H5.625C4.63044 30.25 3.67661 29.8549 2.97335 29.1516C2.27009 28.4484 1.875 27.4946 1.875 26.5V9.75C1.875 8.64543 2.77043 7.75 3.875 7.75H8.4375V6.8125C8.4375 5.07202 9.12891 3.40282 10.3596 2.17211C11.5903 0.941404 13.2595 0.25 15 0.25C16.7405 0.25 18.4097 0.941404 19.6404 2.17211C20.8711 3.40282 21.5625 5.07202 21.5625 6.8125ZM26.25 26.5V11.625C26.25 10.5204 25.3546 9.625 24.25 9.625H5.75C4.64543 9.625 3.75 10.5204 3.75 11.625V26.5C3.75 26.9973 3.94754 27.4742 4.29917 27.8258C4.65081 28.1775 5.12772 28.375 5.625 28.375H24.375C24.8723 28.375 25.3492 28.1775 25.7008 27.8258C26.0525 27.4742 26.25 26.9973 26.25 26.5Z" fill="#FFF3A7"/>
<path d="M13.6758 22.6379C13.971 23.1819 14.8568 23.1958 15.152 22.6238C16.7463 19.7024 19.8759 13.2486 16.5692 13.0704C12.672 12.8086 11.5501 17.7165 13.6758 22.6379ZM9.30623 23.5145C9.71957 23.774 10.251 23.5256 10.3101 23.0764C10.4281 22.0664 10.4872 20.5569 9.95576 19.8567C9.18814 18.7212 7.71193 18.9028 7.23955 19.9854C6.82621 20.9536 7.12145 22.1114 9.30623 23.5145ZM18.6358 22.3471C18.5768 22.8522 19.1673 23.1032 19.5216 22.8074C19.8168 22.5702 20.1711 22.2744 20.5844 21.9758C21.8244 21.0801 23.4187 19.9443 22.7692 18.8591C22.1197 17.7738 20.112 19.0965 19.2263 20.6451C18.872 21.2757 18.7539 21.8951 18.6358 22.3471Z" fill="#FFF3A7"/>
</svg>
