<svg width="10" height="11" viewBox="0 0 10 11" fill="none" xmlns="http://www.w3.org/2000/svg">
<path d="M2.90625 1.76025C2.80208 1.86442 2.75 1.98775 2.75 2.13025C2.75 2.27275 2.80208 2.39595 2.90625 2.49984L5.95833 5.55192L2.89583 8.61442C2.79861 8.71164 2.75 8.83317 2.75 8.979C2.75 9.12484 2.80208 9.24984 2.90625 9.354C3.01042 9.45817 3.13375 9.51025 3.27625 9.51025C3.41875 9.51025 3.54194 9.45817 3.64583 9.354L7.14583 5.84359C7.1875 5.80192 7.21708 5.75678 7.23458 5.70817C7.25208 5.65956 7.26069 5.60748 7.26042 5.55192C7.26042 5.49636 7.25167 5.44428 7.23417 5.39567C7.21667 5.34706 7.18722 5.30192 7.14583 5.26025L3.63542 1.74984C3.53819 1.65261 3.41833 1.604 3.27583 1.604C3.13333 1.604 3.01014 1.65609 2.90625 1.76025Z" fill="#780C92"/>
</svg>
