<svg width="61" height="60" viewBox="0 0 61 60" fill="none" xmlns="http://www.w3.org/2000/svg">
<path d="M43.1426 22.5V17.5C43.1426 14.1848 41.8256 11.0054 39.4814 8.66116C37.1372 6.31696 33.9578 5 30.6426 5C27.3274 5 24.1479 6.31696 21.8037 8.66116C19.4595 11.0054 18.1426 14.1848 18.1426 17.5V22.5C16.1535 22.5 14.2458 23.2902 12.8393 24.6967C11.4328 26.1032 10.6426 28.0109 10.6426 30V47.5C10.6426 49.4891 11.4328 51.3968 12.8393 52.8033C14.2458 54.2098 16.1535 55 18.1426 55H43.1426C45.1317 55 47.0394 54.2098 48.4459 52.8033C49.8524 51.3968 50.6426 49.4891 50.6426 47.5V30C50.6426 28.0109 49.8524 26.1032 48.4459 24.6967C47.0394 23.2902 45.1317 22.5 43.1426 22.5ZM23.1426 17.5C23.1426 15.5109 23.9328 13.6032 25.3393 12.1967C26.7458 10.7902 28.6535 10 30.6426 10C32.6317 10 34.5394 10.7902 35.9459 12.1967C37.3524 13.6032 38.1426 15.5109 38.1426 17.5V22.5H23.1426V17.5ZM45.6426 47.5C45.6426 48.163 45.3792 48.7989 44.9103 49.2678C44.4415 49.7366 43.8056 50 43.1426 50H18.1426C17.4795 50 16.8437 49.7366 16.3748 49.2678C15.906 48.7989 15.6426 48.163 15.6426 47.5V30C15.6426 29.337 15.906 28.7011 16.3748 28.2322C16.8437 27.7634 17.4795 27.5 18.1426 27.5H43.1426C43.8056 27.5 44.4415 27.7634 44.9103 28.2322C45.3792 28.7011 45.6426 29.337 45.6426 30V47.5Z" fill="#780C92"/>
<path d="M27.5139 39.2118C27.2608 39.8314 27.8611 40.6057 28.5456 40.4774C32.1013 39.8968 39.6853 38.2752 37.5505 35.2997C35.0781 31.7582 30.1799 34.0779 27.5139 39.2118ZM23.7587 36.0251C23.8264 36.556 24.4022 36.8486 24.8203 36.5985C25.7505 36.0237 27.0593 35.0633 27.2805 34.135C27.7041 32.7111 26.5318 31.5577 25.2959 31.8752C24.197 32.167 23.4282 33.1978 23.7587 36.0251ZM31.1848 43.3011C30.7197 43.5885 30.9167 44.2668 31.41 44.3746C31.8132 44.4706 32.3065 44.5784 32.8429 44.7353C34.4521 45.2061 36.5076 45.8221 36.9707 44.5338C37.4337 43.2456 34.9355 42.3979 33.0226 42.6706C32.248 42.7872 31.6461 43.1002 31.1848 43.3011Z" fill="#780C92"/>
</svg>
