<svg width="61" height="48" viewBox="0 0 61 48" fill="none" xmlns="http://www.w3.org/2000/svg">
<g clip-path="url(#clip0_652_5111)">
<path d="M11.1426 0C8.6582 0 6.64258 2.01562 6.64258 4.5V9H2.14258C1.31758 9 0.642578 9.675 0.642578 10.5C0.642578 11.325 1.31758 12 2.14258 12H26.1426C26.9676 12 27.6426 12.675 27.6426 13.5C27.6426 14.325 26.9676 15 26.1426 15H5.14258C4.31758 15 3.64258 15.675 3.64258 16.5C3.64258 17.325 4.31758 18 5.14258 18H23.1426C23.9676 18 24.6426 18.675 24.6426 19.5C24.6426 20.325 23.9676 21 23.1426 21H2.14258C1.31758 21 0.642578 21.675 0.642578 22.5C0.642578 23.325 1.31758 24 2.14258 24H20.1426C20.9676 24 21.6426 24.675 21.6426 25.5C21.6426 26.325 20.9676 27 20.1426 27H6.64258V39C6.64258 43.9688 10.6738 48 15.6426 48C20.6113 48 24.6426 43.9688 24.6426 39H36.6426C36.6426 43.9688 40.6738 48 45.6426 48C50.6113 48 54.6426 43.9688 54.6426 39H57.6426C59.302 39 60.6426 37.6594 60.6426 36C60.6426 34.3406 59.302 33 57.6426 33V22.2469C57.6426 20.6531 57.0145 19.125 55.8895 18L48.6426 10.7531C47.5176 9.62812 45.9895 9 44.3957 9H39.6426V4.5C39.6426 2.01562 37.627 0 35.1426 0H11.1426ZM51.6426 22.2469V24H39.6426V15H44.3957L51.6426 22.2469ZM15.6426 34.5C16.8361 34.5 17.9806 34.9741 18.8246 35.818C19.6685 36.6619 20.1426 37.8065 20.1426 39C20.1426 40.1935 19.6685 41.3381 18.8246 42.182C17.9806 43.0259 16.8361 43.5 15.6426 43.5C14.4491 43.5 13.3045 43.0259 12.4606 42.182C11.6167 41.3381 11.1426 40.1935 11.1426 39C11.1426 37.8065 11.6167 36.6619 12.4606 35.818C13.3045 34.9741 14.4491 34.5 15.6426 34.5ZM41.1426 39C41.1426 37.8065 41.6167 36.6619 42.4606 35.818C43.3045 34.9741 44.4491 34.5 45.6426 34.5C46.8361 34.5 47.9806 34.9741 48.8246 35.818C49.6685 36.6619 50.1426 37.8065 50.1426 39C50.1426 40.1935 49.6685 41.3381 48.8246 42.182C47.9806 43.0259 46.8361 43.5 45.6426 43.5C44.4491 43.5 43.3045 43.0259 42.4606 42.182C41.6167 41.3381 41.1426 40.1935 41.1426 39Z" fill="#780C92"/>
</g>
<defs>
<clipPath id="clip0_652_5111">
<rect width="60" height="48" fill="white" transform="translate(0.642578)"/>
</clipPath>
</defs>
</svg>
