<svg width="34" height="34" viewBox="0 0 34 34" fill="none" xmlns="http://www.w3.org/2000/svg">
<path d="M28.8594 4.48291H5.14062C4.57021 4.48291 4.10938 4.94375 4.10938 5.51416V29.2329C4.10938 29.8033 4.57021 30.2642 5.14062 30.2642H28.8594C29.4298 30.2642 29.8906 29.8033 29.8906 29.2329V5.51416C29.8906 4.94375 29.4298 4.48291 28.8594 4.48291ZM27.8281 28.2017H21.8952V20.2804H25.2468L25.7495 16.3906H21.8952V13.906C21.8952 12.778 22.2078 12.011 23.8224 12.011H25.8816V8.53057C25.5239 8.48223 24.3025 8.37588 22.8781 8.37588C19.9068 8.37588 17.8733 10.1902 17.8733 13.5192V16.3874H14.5153V20.2771H17.8766V28.2017H6.17188V6.54541H27.8281V28.2017Z" fill="#780C92"/>
</svg>
