<svg width="34" height="34" viewBox="0 0 34 34" fill="none" xmlns="http://www.w3.org/2000/svg">
<path d="M17 11.186C15.7762 11.186 14.5799 11.5489 13.5624 12.2288C12.5449 12.9087 11.7518 13.8751 11.2835 15.0057C10.8152 16.1363 10.6926 17.3804 10.9314 18.5807C11.1701 19.7809 11.7594 20.8834 12.6248 21.7488C13.4901 22.6141 14.5926 23.2034 15.7929 23.4421C16.9931 23.6809 18.2372 23.5584 19.3679 23.09C20.4985 22.6217 21.4648 21.8287 22.1447 20.8111C22.8246 19.7936 23.1875 18.5973 23.1875 17.3735C23.1858 15.733 22.5334 14.1602 21.3733 13.0002C20.2133 11.8402 18.6405 11.1877 17 11.186ZM17 21.4985C16.1842 21.4985 15.3866 21.2566 14.7083 20.8033C14.0299 20.3501 13.5012 19.7058 13.189 18.9521C12.8768 18.1984 12.7951 17.369 12.9543 16.5688C13.1134 15.7686 13.5063 15.0336 14.0832 14.4567C14.6601 13.8798 15.3951 13.487 16.1953 13.3278C16.9954 13.1686 17.8248 13.2503 18.5786 13.5625C19.3323 13.8747 19.9766 14.4035 20.4298 15.0818C20.8831 15.7602 21.125 16.5577 21.125 17.3735C21.125 18.4676 20.6904 19.5168 19.9168 20.2903C19.1432 21.0639 18.094 21.4985 17 21.4985ZM23.1875 3.96729H10.8125C8.8986 3.96933 7.06367 4.73053 5.71033 6.08387C4.357 7.4372 3.5958 9.27213 3.59375 11.186V23.561C3.5958 25.4749 4.357 27.3099 5.71033 28.6632C7.06367 30.0165 8.8986 30.7777 10.8125 30.7798H23.1875C25.1014 30.7777 26.9363 30.0165 28.2897 28.6632C29.643 27.3099 30.4042 25.4749 30.4062 23.561V11.186C30.4042 9.27213 29.643 7.4372 28.2897 6.08387C26.9363 4.73053 25.1014 3.96933 23.1875 3.96729ZM28.3438 23.561C28.3438 24.9286 27.8005 26.2401 26.8335 27.2071C25.8665 28.174 24.555 28.7173 23.1875 28.7173H10.8125C9.44498 28.7173 8.13347 28.174 7.16648 27.2071C6.1995 26.2401 5.65625 24.9286 5.65625 23.561V11.186C5.65625 9.81851 6.1995 8.507 7.16648 7.54002C8.13347 6.57303 9.44498 6.02979 10.8125 6.02979H23.1875C24.555 6.02979 25.8665 6.57303 26.8335 7.54002C27.8005 8.507 28.3438 9.81851 28.3438 11.186V23.561ZM25.25 10.6704C25.25 10.9764 25.1593 11.2754 24.9893 11.5298C24.8193 11.7842 24.5777 11.9825 24.2951 12.0995C24.0124 12.2166 23.7014 12.2472 23.4013 12.1876C23.1013 12.1279 22.8257 11.9806 22.6093 11.7642C22.393 11.5479 22.2457 11.2723 22.186 10.9722C22.1263 10.6721 22.1569 10.3611 22.274 10.0784C22.3911 9.79579 22.5893 9.5542 22.8437 9.38423C23.0981 9.21426 23.3972 9.12354 23.7031 9.12354C24.1134 9.12354 24.5068 9.28651 24.7969 9.5766C25.087 9.8667 25.25 10.2602 25.25 10.6704Z" fill="#780C92"/>
</svg>
