<svg width="200" height="125" viewBox="0 0 200 125" fill="none" xmlns="http://www.w3.org/2000/svg">
<g clip-path="url(#clip0_305_12717)">
<g filter="url(#filter0_d_305_12717)">
<path d="M196.344 38.4569C197.45 35.5912 196.644 32.0137 194.469 29.9922C192.589 28.2455 190.109 27.9378 187.865 29.1459C186.726 29.7519 186.54 29.9783 185.502 31.6757C184.228 33.7531 182.773 37.4918 179.786 46.3961L177.857 52.0911L175.758 55.0656L173.656 58.0038L174.544 58.8286L175.449 59.6696L177.604 56.4485L179.792 53.2233L183.613 50.2855C190.126 45.2908 194.777 41.3265 195.6 40.0615C195.783 39.7988 196.114 39.0753 196.344 38.4569ZM193.371 41.4515C191.144 43.5408 183.09 49.966 183.491 49.3073C183.558 49.1698 184.769 47.9655 186.158 46.6279C193.148 39.879 194.887 37.6683 195.455 34.6692C195.777 32.9715 195.874 32.9958 196.132 34.9321C196.338 36.4884 195.929 38.2709 195.092 39.5561C194.87 39.9158 194.073 40.7726 193.371 41.4515ZM190.816 41.0063C188.622 43.2936 181.787 49.986 181.773 49.8404C181.784 49.7839 182.466 48.8866 183.326 47.8561C190.706 38.9407 193.275 35.372 194.609 32.2194C194.846 31.6738 194.884 31.7425 194.945 32.9309C195.081 35.4533 193.88 37.7975 190.816 41.0063ZM186.527 42.8445C181.999 48.4864 180.292 50.5273 180.416 50.1433C180.678 49.3551 187.941 37.4364 189.583 35.0357C191.172 32.7522 191.776 32.049 192.642 31.4227C193.925 30.4852 194.312 30.5459 194.028 31.613C193.47 33.8563 191.944 36.1317 186.527 42.8445ZM182.433 44.1977C183.502 41.7969 185.11 38.3331 186.055 36.482C187.479 33.6124 187.883 32.99 188.827 32.0039C190.006 30.8036 191.796 29.838 192.561 30.016C192.997 30.0888 192.972 30.1656 191.987 31.0466C190.559 32.3155 187.503 36.83 184.17 42.4842C180.372 48.9711 180.242 49.1166 182.433 44.1977ZM180.785 45.4949C181.342 43.5831 184.414 35.2569 185.257 33.3451C186.235 31.1585 187.003 30.3422 188.701 29.5907C189.587 29.1826 191.971 28.9689 191.288 29.3326C187.912 31.2195 187.082 32.4118 182.828 41.7361C180.814 46.1538 180.339 47.0429 180.785 45.4949Z" fill="#FFF3A7"/>
<path d="M175.827 59.2038C175.72 58.036 174.859 57.2915 173.807 57.4108L173.037 57.5096L168.522 63.996L164.008 70.4824L164.022 71.3668C164.037 72.1111 164.139 72.3467 164.683 72.8522C165.183 73.3167 165.504 73.4465 165.994 73.3681L166.647 73.2999L171.268 66.6599L175.889 60.0199L175.827 59.2038ZM165.76 72.2788C165.19 72.3675 164.934 72.0738 164.979 71.384C165.03 70.3358 166.108 70.2132 166.375 71.2205C166.529 71.8692 166.333 72.2209 165.76 72.2788Z" fill="#BF17E6"/>
</g>
<g filter="url(#filter1_d_305_12717)">
<path d="M56.1867 94.4774C55.0187 95.7687 52.248 95.4098 48.0688 96.2762C44.9542 96.9218 40.9745 97.3522 36.8218 97.9979C36.4324 92.8327 36.8215 73.4201 37.4704 64.381C37.4704 64.381 39.5468 38.8133 39.8063 34.2937C40.0659 30.1616 33.1879 28.8703 33.1879 28.8703C26.9587 27.7081 23.7144 28.3537 22.1571 29.5159C19.0426 30.2907 16.7863 31.5266 14.9695 32.6888C9.25947 36.4336 11.3271 34.6087 13.1439 36.5456C13.5735 36.5456 19.3021 35.8433 20.8594 34.8102C21.5083 37.7802 21.5083 44.3659 21.3785 50.3059C21.2487 56.5041 20.7297 99.117 22.4167 101.57C23.0656 102.474 24.4931 102.991 26.1801 103.378C32.1497 104.67 55.6676 101.795 61.3776 101.795C56.6193 95.7687 62.1995 98.0069 60.5125 94.9078C59.5608 94.3052 57.0951 93.4443 56.1867 94.4774Z" fill="#FAD1EF"/>
<path d="M86.4383 29.6451C80.858 29.9033 79.8198 42.1707 79.8198 42.1707C79.6901 44.2368 79.171 49.6602 78.2626 54.5672C77.0946 60.6363 75.4076 66.0597 74.3694 66.318C72.1632 66.9636 72.0334 62.8315 72.0334 62.8315C72.293 54.5672 72.5525 37.7802 72.9418 34.0355C73.2014 31.1946 69.8273 29.9033 66.1936 29.6451C57.369 28.9994 60.4836 35.1976 60.4836 35.1976C60.7431 36.8763 60.6133 39.3298 60.6133 43.3328C60.4836 48.1107 60.3538 56.2459 60.3538 63.348C60.3538 63.348 58.3148 72.5502 67.2692 75.0037C71.6815 76.295 76.9648 72.9036 79.5603 66.1889C79.5603 69.1589 79.8198 70.1919 79.8198 71.0958C79.8198 71.0958 79.8198 72.7745 85.2703 73.0328C89.4231 73.1619 90.8034 73.1619 90.8506 72.6454C90.9804 71.2249 91.759 61.4111 91.759 54.438C91.8888 49.9185 92.1483 40.2337 91.3697 34.8103C91.3697 34.8103 91.1101 29.3868 86.4383 29.6451Z" fill="#BF17E6"/>
<path d="M132.466 44.495C132.337 40.7502 130.39 36.6181 126.627 35.3268C124.42 34.552 122.733 35.0685 122.733 35.0685C119.619 35.9724 115.336 43.5911 112.871 48.3689C113.26 42.9454 113.39 39.8463 113.519 38.0385C113.909 34.9394 109.756 32.8733 105.344 32.7442C99.3741 32.4859 99.6337 35.3268 100.153 37.3929C100.412 38.2968 100.542 39.5881 100.542 39.5881C100.672 41.0085 100.542 41.7833 100.412 45.7863C100.283 53.0176 100.454 69.0297 100.843 76.9066C100.843 76.9066 102.92 81.254 106.034 81.6414C111.744 82.2871 111.225 79.0588 111.225 79.0588C111.744 76.4762 111.443 72.7745 111.443 69.5462C111.443 67.4802 111.703 63.4771 112.092 58.9576C114.298 50.5641 121.176 38.9424 121.955 40.2337C122.733 41.525 120.787 53.1467 120.138 57.6663C119.489 62.1858 119.359 73.0327 120.657 77.4232C121.825 81.8136 125.933 81.211 131.124 79.4892C133.46 79.231 135.45 79.0588 135.45 79.0588C134.931 73.7645 132.596 48.2398 132.466 44.495Z" fill="#FAD1EF"/>
<path d="M161.837 72.1719C163.264 72.9467 166.855 74.3671 167.893 73.4632C168.671 72.5593 165.038 51.425 165.298 49.3589C165.298 49.3589 170.836 25.9003 165.515 25.2546C159.027 24.4799 158.118 31.582 158.118 31.582C156.95 29.1285 155.133 27.0624 152.149 26.9333C144.492 26.5459 136.446 38.2968 135.927 49.2728C135.538 60.2489 139.301 69.5462 140.729 71.3541C142.805 74.0658 151.022 67.4371 151.022 67.4371C156.992 67.6954 156.042 64.5102 158.118 58.1828C158.118 58.1828 158.073 70.1058 161.837 72.1719ZM147.996 61.7984C145.79 60.8945 146.439 50.6933 146.439 50.6933C146.698 43.5911 149.034 29.9033 152.538 31.7111C155.263 33.1316 156.95 41.0085 157.729 44.8824C154.485 59.6032 149.553 62.315 147.996 61.7984Z" fill="#BF17E6"/>
<path d="M70.7673 67.5125C69.5982 67.5925 68.6382 68.2682 68.1081 68.7881C67.8922 68.9999 67.7547 69.279 67.6636 69.573C67.4795 70.167 67.5121 70.8108 67.7552 71.3813L67.8014 71.4897L67.8697 71.6242C68.3 72.4709 68.9467 73.1771 69.7383 73.6647C71.0655 74.4493 72.4753 75.0712 73.9397 75.5182L73.9753 75.5291L75.1253 75.9641L75.5319 76.1032C75.6862 76.156 75.7419 76.3535 75.6395 76.4849C75.6197 76.5103 75.5952 76.5312 75.5674 76.5464L75.084 76.8111C74.8305 76.9499 74.5586 77.0488 74.2771 77.1043L73.6448 77.2292C73.3009 77.2971 72.9517 77.3312 72.6017 77.3312C72.0278 77.3312 71.4573 77.2393 70.9102 77.0588L70.0409 76.7719L68.2856 75.9641L66.9954 75.2628C66.4846 74.9851 65.9992 74.6597 65.5449 74.2906C65.033 73.8744 64.4815 73.5141 63.899 73.215L63.3223 72.919L62.7859 72.7207C62.1521 72.4865 61.4622 72.4742 60.8211 72.6858L60.583 72.7643C60.2749 72.866 59.9943 73.0422 59.7642 73.2785C59.5174 73.5318 59.3364 73.8463 59.2381 74.1923L59.1953 74.3429C59.0448 74.8727 59.0515 75.4375 59.2144 75.9633L59.2219 75.9876C59.3316 76.3413 59.5071 76.669 59.7386 76.9519L60.0388 77.3189C60.4487 77.8198 60.9454 78.2358 61.503 78.5453L62.1801 78.9211C62.6582 79.1864 63.158 79.4066 63.6738 79.579L65.5013 80.1899L67.8014 80.7492L70.0409 81.6192L71.2027 81.9303C71.3507 81.97 71.4787 82.0669 71.5605 82.2013C71.6697 82.3808 71.6841 82.6057 71.5987 82.7987L71.5524 82.9034C71.4752 83.0777 71.3429 83.2191 71.1776 83.3039L70.8489 83.4727C70.5961 83.6024 70.3181 83.6699 70.0362 83.6699H69.6793C69.4369 83.6699 69.1951 83.6427 68.9583 83.5886L67.1356 83.1728L64.775 82.3028L63.7297 81.9219C63.1771 81.7206 62.6456 81.4611 62.1436 81.1473C61.7196 80.8824 61.2745 80.656 60.8132 80.4706L60.1143 80.1899L59.5698 79.8768C58.941 79.5153 58.2167 79.3762 57.5055 79.4805L57.2893 79.5122C57.0361 79.5494 56.7914 79.634 56.5671 79.7619L56.334 79.8949C56.0022 80.0841 55.7538 80.4001 55.6411 80.7762C55.5971 80.923 55.5747 81.076 55.5747 81.2298V81.426C55.5747 81.9969 55.7417 82.5543 56.0536 83.0238L56.193 83.2338C56.3851 83.523 56.6165 83.7816 56.88 84.0014L57.4511 84.4778L57.9277 84.7869C58.3754 85.0772 58.8514 85.317 59.3478 85.5023C59.7371 85.6476 60.1373 85.7589 60.5443 85.8349L61.2644 85.9693L62.8986 86.28L64.775 86.5286L65.6863 86.6005C66.6497 86.6766 67.6023 86.8608 68.5277 87.15L69.3079 87.4303C69.5925 87.5326 69.8575 87.6869 70.0902 87.8861L70.3333 88.0941C70.4201 88.1683 70.4926 88.259 70.5469 88.3614L70.6012 88.4636C70.7389 88.7227 70.7167 89.0422 70.5445 89.2779C70.4917 89.3501 70.4267 89.4118 70.3527 89.4598L70.0145 89.679C69.5571 89.9757 69.029 90.1329 68.4902 90.1329H67.7971C67.5179 90.1329 67.2392 90.11 66.9635 90.0643L65.5013 89.8222L63.746 89.3872L61.5065 88.89L60.3565 88.4711C59.873 88.2949 59.377 88.1583 58.8731 88.0625L58.2546 87.9449C58.0825 87.9122 57.9078 87.8957 57.7328 87.8957H57.3478C56.9442 87.8957 56.5524 88.0373 56.2355 88.2976L56.1249 88.3884C55.9238 88.5536 55.7732 88.7759 55.6911 89.0286C55.6149 89.2633 55.6009 89.5151 55.6506 89.7574L55.6966 89.9816C55.7753 90.3655 55.9508 90.7207 56.2049 91.0106L56.6079 91.4703C56.8063 91.6967 57.0272 91.9004 57.2669 92.0782C57.7474 92.4344 58.2951 92.6801 58.8736 92.7989L60.1143 93.0537L62.8986 93.5508L65.2592 93.8616L66.3903 94.0606C67.0474 94.1763 67.7127 94.2344 68.3791 94.2344H68.9285C69.1855 94.2344 69.4421 94.2554 69.696 94.2971L70.511 94.431C70.7194 94.4652 70.9175 94.5488 71.09 94.6753L71.1386 94.7109C71.475 94.9576 71.6752 95.3594 71.6752 95.788C71.6752 96.2867 71.4302 96.7576 71.0258 97.0245C70.8947 97.111 70.7507 97.1742 70.5997 97.2114L69.9352 97.3751C69.5229 97.4767 69.1006 97.5281 68.6769 97.5281H68.1109C67.4621 97.5281 66.8148 97.4643 66.1775 97.3377L65.2592 97.1552L63.5644 96.7202L62.2859 96.4499C61.773 96.3415 61.2432 96.3563 60.7366 96.4932L60.6128 96.5266C60.4424 96.5727 60.2777 96.6387 60.1216 96.7235L59.6846 96.9611C59.4547 97.086 59.2778 97.2955 59.188 97.5488C59.1209 97.7384 59.1058 97.9436 59.1443 98.1416L59.2532 98.7007C59.3025 98.9537 59.382 99.1992 59.4898 99.4317L59.7653 100.026C59.8766 100.266 60.0108 100.494 60.1658 100.706C60.491 101.151 60.9025 101.52 61.3735 101.789L61.5659 101.898C62.0474 102.173 62.57 102.36 63.1117 102.453L63.746 102.562C66.0016 102.81 68.2734 102.856 70.5365 102.699L72.5226 102.562H74.4142C75.3687 102.562 76.3194 102.687 77.2438 102.935L78.9386 103.556L81.4808 104.302C83.0914 105.005 84.761 105.551 86.4682 105.933L87.2309 106.104L88.3788 106.34C89.4269 106.555 90.4927 106.663 91.5609 106.663H91.9619C92.6401 106.663 93.3171 106.602 93.9853 106.481C95.3628 106.232 96.6869 105.729 97.8958 104.997L98.4287 104.675L98.7947 104.428C99.9615 103.64 101.073 102.768 102.121 101.816L102.352 101.54C103.931 99.6551 105.371 97.6493 106.66 95.5394L107.532 93.8983C107.676 93.6271 107.862 93.3823 108.082 93.1736C108.382 92.8901 108.738 92.6795 109.125 92.5572L109.486 92.443C109.9 92.3123 110.33 92.2458 110.763 92.2458H111.251C111.737 92.2458 112.218 92.3456 112.666 92.5395C112.979 92.6745 113.272 92.8535 113.537 93.0716L113.578 93.1048C113.887 93.3594 114.16 93.6596 114.387 93.996L114.59 94.2966L115.316 95.5394L117.132 98.7088L118.166 100.074C119.167 101.395 120.332 102.571 121.631 103.572L121.883 103.765C122.668 104.37 123.508 104.893 124.392 105.328C125.44 105.844 126.542 106.231 127.675 106.482L129.056 106.788C131.218 106.952 133.391 106.72 135.477 106.102L138.619 105.172L142.13 103.929L143.2 103.568C145.298 102.86 147.49 102.5 149.696 102.5L152.299 102.872H154.962H155.072C156.4 102.872 157.716 102.62 158.957 102.127L160.179 101.644C160.413 101.552 160.637 101.435 160.849 101.297L161.061 101.159C161.582 100.818 161.991 100.318 162.231 99.7276L162.272 99.6244C162.401 99.3072 162.467 98.9664 162.467 98.622V98.4756C162.467 97.9073 162.251 97.3545 161.875 96.9435C161.631 96.6775 161.322 96.4769 160.984 96.3686C160.686 96.2728 160.37 96.2488 160.061 96.2983L159.105 96.4516C158.765 96.5063 158.429 96.5901 158.102 96.7021L156.596 97.2173C155.51 97.4652 154.401 97.5902 153.289 97.5902H152.904H152.404C152.134 97.5902 151.865 97.5476 151.606 97.4638L151.213 97.3364C150.974 97.2587 150.761 97.1103 150.6 96.9092L150.521 96.8093C150.379 96.6312 150.301 96.4071 150.301 96.1756C150.301 95.8898 150.42 95.6179 150.626 95.4295L150.666 95.3928C150.785 95.2847 150.924 95.2052 151.076 95.1599L152.299 94.7937L154.296 94.483L156.112 94.2344L158.957 93.8616L159.605 93.7506C160.863 93.5354 162.089 93.1551 163.254 92.6187L164.261 92.2427C164.477 92.1622 164.682 92.0542 164.872 91.9212L165.298 91.6232C165.692 91.3475 165.952 90.908 166.012 90.4176C166.03 90.2699 166.029 90.1203 166.01 89.9727L165.976 89.7103C165.937 89.4151 165.842 89.131 165.695 88.8752L165.663 88.8194C165.436 88.4228 165.085 88.1191 164.67 87.959C164.454 87.876 164.226 87.8336 163.997 87.8336H163.647C163.386 87.8336 163.125 87.861 162.869 87.9154L162.101 88.0785C161.701 88.1636 161.31 88.2914 160.935 88.4599C160.666 88.5808 160.388 88.6808 160.105 88.759L158.957 89.0765L157.869 89.4091C156.7 89.7668 155.505 90.0296 154.296 90.1951H153.369C152.901 90.1951 152.437 90.111 151.996 89.9465L151.658 89.8223C151.337 89.7049 151.088 89.4374 150.986 89.1001C150.896 88.8071 150.926 88.4889 151.067 88.2192L151.079 88.1968C151.203 87.9616 151.399 87.7768 151.636 87.6725L152.296 87.3821C152.459 87.3103 152.627 87.2528 152.8 87.2102L154.296 86.8393L157.08 86.5286L160.531 85.845C161.968 85.5989 163.356 85.0437 164.586 84.2292L165.415 83.5375C165.508 83.4603 165.592 83.373 165.667 83.2771C165.907 82.9684 166.039 82.5829 166.039 82.1853V81.8678V81.5846C166.039 81.2801 165.973 80.9794 165.847 80.7046L165.833 80.6726C165.652 80.2794 165.35 79.9608 164.975 79.7682C164.719 79.6368 164.437 79.5684 164.152 79.5684H163.778C163.273 79.5684 162.775 79.6829 162.318 79.9039L161.983 80.0656L160.288 80.8113L158.594 81.6192L156.354 82.4892L154.72 83.1106L153.775 83.3531C152.955 83.5636 152.114 83.6699 151.27 83.6699H150.694C150.455 83.6699 150.238 83.5239 150.14 83.2969C150.087 83.1758 150.073 83.0406 150.098 82.9104L150.151 82.637C150.245 82.1552 150.56 81.752 150.994 81.5579L152.138 81.0458C152.485 80.8903 152.853 80.7895 153.229 80.7466L154.296 80.6249L156.596 80.0656L158.594 79.3198L159.804 78.7605L160.97 78.2478C161.319 78.0941 161.634 77.8674 161.896 77.5818L161.909 77.568C162.273 77.1703 162.519 76.6675 162.615 76.1266C162.677 75.7741 162.674 75.4107 162.606 75.0594C162.515 74.593 162.312 74.1585 162.015 73.7967L161.947 73.7143C161.652 73.3543 161.285 73.0641 160.866 72.8798C160.413 72.6804 159.931 72.484 159.804 72.484C159.611 72.484 158.916 72.6497 158.594 72.7326C157.591 73.0209 156.635 73.4657 155.76 74.0518L155.688 74.0997L154.72 74.9698L153.691 75.7155L152.299 76.5234L151.922 76.6827C151.488 76.8661 151.039 77.0077 150.58 77.1058C150.073 77.2144 149.556 77.2691 149.038 77.2691H148.728H147.638L147.425 77.2509C147.087 77.2219 146.757 77.1204 146.458 76.9528L146.317 76.8737C146.27 76.8474 146.225 76.8163 146.184 76.781C145.993 76.6179 145.751 76.2106 145.991 76.152C145.995 76.151 145.999 76.1505 146.004 76.1505C146.101 76.1505 146.73 76.0262 147.033 75.9641L148.425 75.5912L148.892 75.4135C149.669 75.1181 150.423 74.762 151.149 74.3483L151.223 74.3046C152.02 73.8374 152.689 73.1534 153.509 72.7326C153.872 72.1111 153.872 71.7815 153.872 71.2614V70.9304V69.9361C153.852 69.7289 153.788 69.2774 153.691 69.1282C153.57 68.9418 153.509 68.8796 153.388 68.6932C153.267 68.5068 152.722 68.1339 152.541 68.0096C152.396 67.9102 151.915 67.7611 151.693 67.6989C151.391 67.6575 150.689 67.587 150.301 67.6368C149.914 67.6865 149.615 67.8232 149.514 67.8853L148.728 68.2582L147.638 68.8796C147.073 69.3147 145.774 70.309 145.096 70.8061C144.248 71.4276 143.583 71.4276 142.554 72.1111C141.525 72.7947 140.617 72.7947 139.83 73.1676C139.2 73.4659 138.276 73.5404 137.893 73.5404H136.198H133.172L130.872 73.6647L129.48 73.9133L127.422 74.5348C126.534 74.9076 124.407 75.8771 123.003 76.7719C121.248 77.8905 120.703 78.5741 119.977 79.0091C119.396 79.3571 118.282 80.5213 117.798 81.0599C117.153 81.8458 116.594 82.7052 115.966 83.5057C115.775 83.749 115.573 83.982 115.377 84.1671C114.795 84.7139 113.884 84.8921 113.5 84.9128H111.382C110.312 84.9128 107.944 84.9004 107.024 84.8507C105.874 84.7885 105.45 83.5395 104.724 82.6074C103.997 81.6752 102.847 80.252 102.666 80.0034C102.52 79.8046 100.345 78.0563 99.2761 77.2069C98.126 76.4405 95.7654 74.8703 95.5233 74.7212C94.0979 73.8431 92.3382 73.7971 90.6905 73.6255C89.74 73.5266 88.9152 73.4635 88.8652 73.5404C88.7442 73.7269 83.5993 73.2919 83.4177 73.354C83.2361 73.4162 80.5728 72.6704 79.6649 72.3597C78.9386 72.1111 77.5868 71.3861 77.0017 71.0547C75.2288 69.7723 73.6362 67.9545 71.5113 67.5602C71.2643 67.5144 71.0146 67.4955 70.7673 67.5125Z" fill="#FFF3A7"/>
<ellipse cx="132.731" cy="90.7849" rx="10.5405" ry="10.9805" fill="#FAD1EF"/>
<path d="M100.266 90.7849C100.266 96.8493 95.5468 101.765 89.7255 101.765C83.9042 101.765 79.1851 96.8493 79.1851 90.7849C79.1851 84.7206 83.9042 79.8044 89.7255 79.8044C95.5468 79.8044 100.266 84.7206 100.266 90.7849Z" fill="#FAD1EF"/>
</g>
<g filter="url(#filter2_d_305_12717)">
<path d="M183.611 85.8473L182.116 89.5393C181.562 90.9013 180.526 91.976 179.265 92.4978L165.117 98.3299L163.842 98.8541L163.434 99.0234L162.493 97.4056L175.072 83.6352C175.76 82.881 176.68 82.4523 177.626 82.4496C179.672 82.4469 183.142 82.4967 183.425 82.8712C183.477 82.9454 183.521 83.0514 183.555 83.1817C183.623 83.4425 183.654 83.804 183.664 84.178C183.688 84.9873 183.611 85.8473 183.611 85.8473Z" fill="#FAD1EF"/>
<path d="M183.612 85.8525L182.121 89.5575C181.568 90.9241 180.533 92.0018 179.272 92.5239L165.128 98.3598L163.853 98.8843C163.268 98.166 164.458 97.4507 164.458 97.4507C164.458 97.4507 172.255 92.4964 176.511 90.2077C180.762 87.9219 180.815 86.3548 181.453 85.2735C182.087 84.1916 183.554 83.1759 183.554 83.1759C183.622 83.4379 183.653 83.8009 183.664 84.1764C183.689 84.989 183.612 85.8525 183.612 85.8525Z" fill="#BF17E6"/>
<path d="M183.555 85.9104L182.065 89.5961C181.515 90.9561 180.483 92.0279 179.223 92.5478L165.121 98.3651C164.825 98.062 164.714 97.8113 164.776 97.7603C164.959 97.6104 178.448 91.0662 178.75 90.9255C179.053 90.785 180.978 89.8535 181.855 87.9329C182.731 86.0158 182.644 85.4714 182.803 85.3083C182.962 85.1449 183.55 84.2768 183.55 84.2768C183.568 84.2644 183.589 84.252 183.607 84.2434C183.631 85.0516 183.555 85.9104 183.555 85.9104Z" fill="#FAD1EF"/>
<path d="M194.027 80.3714C194.027 80.3714 191.729 82.2276 189.555 83.0366C187.34 83.8594 188.011 83.4847 185.009 83.8983L185.003 83.8976C184.838 83.9155 184.662 83.9431 184.474 83.9693L184.054 83.9337L183.786 83.068L182.912 82.4863C182.912 82.4863 182.395 82.3094 182.63 81.9444C182.709 81.8193 183.093 81.2391 183.644 80.4387L183.652 80.4287C184.707 78.8874 186.358 76.5471 187.613 75.0788C187.667 75.016 187.718 74.9564 187.771 74.8971L187.772 74.8935C189.551 72.8498 189.893 73.0035 189.893 73.0035C189.893 73.0035 189.902 73.0046 189.921 73.0103L189.924 73.0106C190.099 73.0624 190.991 73.3457 191.018 73.9498C191.026 74.0845 191.025 74.2111 191.016 74.3224C190.991 74.7684 190.884 75.028 190.884 75.028C190.884 75.028 191.054 75.0432 191.291 75.0876C191.714 75.167 192.349 75.3422 192.612 75.6972C192.661 75.764 192.72 75.8791 192.744 76.0304C192.78 76.2406 192.752 76.52 192.536 76.8363L192.53 76.8392C192.793 77.2845 193.422 77.0973 193.422 77.0973L193.457 77.3618L193.536 77.9426L193.547 78.0087C193.547 78.0087 193.221 78.8269 192.657 79.2425C192.759 79.3046 192.857 79.3696 192.949 79.4378C193.572 79.8795 194.027 80.3714 194.027 80.3714Z" fill="#FAD1EF"/>
<path d="M193.53 77.9928C193.53 77.9928 192.636 78.8151 190.52 79.9423C188.405 81.0697 184.851 82.6474 184.387 83.0972C183.922 83.5471 183.922 83.5471 183.922 83.5471C183.922 83.5471 185.346 82.5905 187.616 81.8255C189.886 81.0603 192.646 79.2413 192.646 79.2413C192.646 79.2413 193.324 78.6011 193.53 77.9928Z" fill="#FAD1EF"/>
<path d="M193.422 77.0946C191.362 78.3738 186.047 80.8487 185.88 80.9246C185.935 80.8836 186.516 80.4488 188.37 79.4639C190.326 78.4285 192.524 76.8464 192.524 76.8464C192.788 77.2857 193.422 77.0946 193.422 77.0946Z" fill="#FAD1EF"/>
<path d="M183.109 82.9787C182.72 82.8576 182.357 82.6449 181.931 82.6829C180.572 82.8042 179.224 82.9735 177.856 83.0292C176.924 83.0673 175.988 83.262 175.266 84.0083C174.588 84.7092 173.966 85.4665 173.358 86.2339C171.164 89.0046 165.598 95.1823 165.281 95.7354C165.357 95.6019 165.804 96.2191 165.831 96.2738C165.779 96.1656 177.272 87.9038 177.611 87.669C177.91 87.4623 178.192 87.2283 178.471 86.9914C179.142 86.4217 179.801 85.8333 180.423 85.2023C180.836 84.783 181.183 84.2901 181.622 83.8992C182.084 83.4884 182.633 83.3725 183.109 82.9787Z" fill="#BF17E6"/>
<path d="M192.715 76.0627C192.655 76.3645 192.419 76.6273 192.181 76.8239C191.466 77.4128 190.644 77.7983 189.834 78.1924C189.17 78.519 188.507 78.8531 187.852 79.2067C186.847 79.7471 185.852 80.3365 184.98 81.1243C185.859 80.1131 186.741 79.0986 187.62 78.0837C188.011 77.6369 188.399 77.1858 188.829 76.7879C189.133 76.5035 189.457 76.2437 189.791 76.0069C190.089 75.7919 190.398 75.5963 190.712 75.4089C190.874 75.3141 191.062 75.1743 191.254 75.0974C191.679 75.1803 192.316 75.3614 192.581 75.7234C192.63 75.7916 192.689 75.9088 192.715 76.0627Z" fill="#BF17E6"/>
<path d="M190.998 74.318C190.769 74.4865 190.529 74.6427 190.301 74.8076C189.917 75.0835 189.553 75.3871 189.185 75.6938C188.92 75.9132 188.654 76.1364 188.389 76.3595C187.995 76.6892 187.57 77.0041 187.237 77.4104C186.846 77.8837 186.455 78.3605 186.065 78.8337C185.56 79.4516 185.052 80.0693 184.544 80.6833C184.13 81.1868 183.754 81.7682 183.218 82.1035C183.25 81.9162 183.242 81.732 183.261 81.5395C183.285 81.3182 183.344 81.0937 183.422 80.8822C183.469 80.7518 183.522 80.6257 183.581 80.504L183.589 80.4939C184.649 78.933 186.308 76.5632 187.571 75.0769C187.625 75.0134 187.676 74.9531 187.73 74.8931L187.73 74.8894C187.979 74.6204 188.237 74.3561 188.503 74.1002C188.926 73.7004 189.394 73.2839 189.892 72.9845L189.896 72.9848C190.072 73.0378 190.971 73.3273 191 73.9401C191.007 74.0768 191.007 74.2052 190.998 74.318Z" fill="#BF17E6"/>
<path d="M193.554 77.9138C193.355 78.0567 193.176 78.1722 193.122 78.2103C192.078 78.9045 190.94 79.3735 189.823 79.8784C188.009 80.7009 186.232 81.6421 184.459 82.5798C185.847 81.2431 187.393 80.0946 189.07 79.3116C189.702 79.0161 190.346 78.7734 190.987 78.5048C191.714 78.2017 192.43 77.8606 193.133 77.4884C193.249 77.4281 193.358 77.3707 193.473 77.3213L193.554 77.9138Z" fill="#BF17E6"/>
<path d="M194.067 80.3707C194.067 80.3707 191.786 81.9049 189.588 82.7208C187.348 83.5508 188.044 83.2595 185.011 83.6909L184.849 83.6747C184.69 83.6479 184.912 83.4427 184.776 83.3432C185.32 83.1974 185.083 83.1848 185.615 82.9846C186.487 82.6574 187.832 82.4939 188.678 82.0927C189.616 81.6469 190.554 81.201 191.433 80.6243C191.95 80.2828 192.441 79.8993 192.926 79.5083C192.945 79.4923 192.963 79.4762 192.983 79.4568C193.61 79.8883 194.067 80.3707 194.067 80.3707Z" fill="#BF17E6"/>
<path d="M191.426 74.9489C191.426 74.9489 189.472 76.1368 188.337 77.535C187.203 78.9334 184.071 82.1165 184.071 82.1165C184.071 82.1165 186.471 79.45 187.53 78.2121C188.589 76.9743 189.799 75.6145 190.163 75.414C190.528 75.2131 191.426 74.9489 191.426 74.9489Z" fill="#FAD1EF"/>
<path d="M164.661 95.2289L164.534 95.2199L161.22 98.6735L161.487 98.7956C161.98 98.8712 162.141 99.3159 161.819 99.7597L161.974 99.9023L166.105 97.9287C166.592 96.6712 165.866 95.3146 164.661 95.2289Z" fill="#FFF3A7"/>
<path d="M181.8 82.568C181.8 82.568 182.663 82.6159 183.136 83.3183C183.609 84.0206 183.64 84.5271 183.64 84.5271L184.442 84.0021C184.442 84.0021 184.899 83.2252 183.989 82.4444C183.079 81.6636 182.531 81.7999 182.531 81.7999L181.8 82.568Z" fill="#FFF3A7"/>
<path d="M162.417 97.4359C162.417 97.4359 163.413 97.1099 163.721 97.9378C164.029 98.7658 163.886 98.989 163.886 98.989L165.457 98.2381C165.457 98.2381 165.867 97.0413 164.913 96.1865C164.451 95.7727 163.888 95.8953 163.888 95.8953L162.417 97.4359Z" fill="#FFF3A7"/>
<path d="M162.207 99.429C162.289 99.7624 162.099 99.9745 161.782 99.9029C161.466 99.8314 161.143 99.5031 161.06 99.1699C160.978 98.8365 161.168 98.6244 161.485 98.696C161.801 98.7677 162.125 99.0956 162.207 99.429Z" fill="#FFF3A7"/>
<path d="M161.96 99.5404C162.009 99.7374 161.901 99.8611 161.717 99.8165C161.533 99.7719 161.345 99.5759 161.295 99.3786C161.246 99.1817 161.354 99.058 161.538 99.1026C161.722 99.1473 161.91 99.3434 161.96 99.5404Z" fill="#FFF3A7"/>
</g>
<g filter="url(#filter3_d_305_12717)">
<path d="M38.5465 3.59414C35.5207 1.85466 32.3953 6.14966 28.4935 16.5221C27.6972 18.6911 27.0801 20.452 26.6422 21.9123C26.8412 19.0991 27.0005 15.8134 27.0403 12.7425C27.1199 5.52689 26.4232 2.97136 25.3482 2.02646C24.2732 1.10303 24.3927 2.60628 24.1737 6.19262C23.9348 9.77895 22.2825 26.0355 22.7404 26.7657C23.1983 27.4744 25.189 29.7293 25.6866 29.0421C25.7065 29.0421 25.7065 29.0206 25.7065 29.0206L25.7264 29.0421C25.7264 29.0421 25.7464 28.9776 25.7862 28.8488C25.7862 28.8273 25.8061 28.8058 25.8061 28.7844C26.5824 26.3577 32.6939 7.48112 35.3415 6.49327C36.954 5.87049 34.6248 25.7778 35.2619 27.818C35.9586 30.0299 38.7854 29.4286 38.7854 29.4286C38.7854 29.4286 42.0302 5.56984 38.5465 3.59414Z" fill="#FFF3A7"/>
<path d="M51.7319 24.0598C51.5129 24.1243 51.3139 24.1672 51.1148 24.2102C52.4286 22.1915 53.2249 19.593 53.1254 16.8872C52.8666 10.8097 46.9941 9.54272 44.5853 12.5278C42.5548 15.0403 42.1368 17.875 42.734 20.2802C41.5396 23.3297 40.9822 27.4744 44.8242 27.9898C46.6158 28.2475 48.4672 27.3241 49.9403 25.7349C50.6768 25.606 51.4134 25.3483 52.1499 24.9188C56.41 22.4492 56.3901 19.3353 56.3901 19.3353C56.3901 19.3353 55.355 22.9861 51.7319 24.0598ZM51.3338 15.4054C51.8912 18.9703 50.7764 22.2345 49.3033 24.2316C47.8899 23.9095 47.0538 22.7713 46.6556 21.3325C47.3126 20.452 47.9297 19.8293 47.9297 19.8293C47.9297 19.8293 47.2528 18.9917 46.4765 18.2401C46.5561 17.6603 46.6755 17.1019 46.8348 16.5436C47.87 13.2364 50.5972 10.7238 51.3338 15.4054ZM45.6404 25.9067C45.1427 25.4987 45.0233 24.9188 45.1427 24.2746C45.939 24.9618 46.8547 25.4557 47.87 25.6705C47.0339 26.2718 46.2376 26.4006 45.6404 25.9067Z" fill="#FFF3A7"/>
<path d="M82.4733 19.2065C82.4733 19.2065 78.9697 31.0178 76.4415 24.6397C74.7893 20.4735 76.7999 15.6631 76.7401 14.2028C76.7003 13.0217 74.9087 12.721 74.2717 12.6566L74.2518 12.6351C74.2518 12.6351 74.2518 12.6351 74.2518 12.6566C74.1124 12.6351 74.0328 12.6351 74.0328 12.6351C74.0328 12.6351 73.7939 12.9787 73.4953 13.8163C72.3805 15.6202 70.4296 19.1635 69.8125 22.4922C70.0315 19.5286 70.5093 16.4362 70.4695 15.2766C70.4296 13.6445 68.7774 13.1505 67.9214 13.0432C67.6825 13.0002 67.5033 13.0002 67.4436 13.0217C67.4436 13.0217 67.4436 13.0217 67.4237 13.0217C67.4237 13.0217 67.4237 13.0217 67.4237 13.0432C66.508 14.3531 63.9002 18.326 63.0442 22.0841C63.2631 19.2494 63.7011 16.3718 63.6613 15.2766C63.6215 13.1291 60.7748 12.9573 60.6354 13.0217C60.6354 13.0217 59.5406 16.6939 59.4609 22.5995C59.4211 24.9833 59.8192 29.5575 63.2233 27.7536C63.1039 27.3455 63.0243 26.8731 62.9645 26.3577C62.9446 24.8115 63.1835 22.17 64.7164 19.0776C65.5723 17.3382 66.289 16.2859 66.8663 15.6202C66.5876 17.2737 66.3089 19.6575 66.2691 22.5995C66.2293 24.9833 66.6274 29.5575 70.0315 27.7536C69.9519 27.5388 69.9121 27.3026 69.8722 27.0664C69.7727 25.7564 69.7727 22.7284 71.4449 19.0991C71.9625 17.9609 72.4402 17.1234 72.8384 16.5006C72.7388 17.1234 72.6592 17.8321 72.5995 18.6481V18.6696C72.5597 19.3568 72.5398 20.1299 72.5398 20.9674C72.5398 20.9889 72.5398 21.0319 72.5398 21.0748C72.5796 27.7536 76.9392 30.8245 79.4475 27.3026C80.7016 25.5416 81.8363 22.664 82.2942 21.1178C82.6525 19.9366 82.4733 19.2065 82.4733 19.2065Z" fill="#FFF3A7"/>
<path d="M98.6672 18.2401C98.6672 18.2401 95.1635 30.0514 92.6354 23.6518C90.9632 19.5071 92.9937 14.6967 92.934 13.2364C92.8742 11.7761 90.2266 11.6688 90.2266 11.6688C90.2266 11.6688 89.9678 12.0338 89.6493 12.9143C89.5498 13.2364 89.4303 13.6445 89.3109 14.1169C89.1716 14.6753 89.0521 15.3195 88.9526 16.0926C88.216 19.8937 86.3448 28.2904 84.8119 23.6518C83.3985 19.3998 85.1703 14.6967 85.1105 13.2364C85.0508 11.7761 82.4032 11.6688 82.4032 11.6688C82.4032 11.6688 82.1444 12.0338 81.8458 12.9143C81.7264 13.2364 81.6069 13.6445 81.4875 14.1169C81.2685 15.0189 81.0694 16.1785 80.9699 17.6818C80.9301 18.3904 80.9102 19.1635 80.9102 20.0011C80.9102 20.0225 80.9102 20.0655 80.9102 20.1084C80.95 26.7872 84.3541 30.2447 86.8623 26.7442C87.4795 25.8852 88.1762 23.2223 88.7336 20.7097C89.0322 26.959 93.1928 29.7293 95.6214 26.3362C96.8954 24.5752 98.0301 21.6976 98.488 20.1514C98.8264 18.9703 98.6672 18.2401 98.6672 18.2401Z" fill="#FFF3A7"/>
<path d="M114.629 19.4212C114.629 19.4212 111.125 31.2325 108.597 24.8544C106.945 20.6883 108.955 15.8779 108.895 14.4176C108.836 12.9787 106.208 12.8499 106.208 12.8499C106.208 12.8499 101.41 18.0468 100.316 22.7713C100.316 22.7928 100.296 22.8358 100.296 22.8572C100.495 19.8507 100.992 16.6724 100.953 15.4913C100.913 13.3438 98.0661 13.172 97.9267 13.2364C97.9267 13.2364 96.8318 16.9087 96.7522 22.8143C96.7124 25.198 97.1105 29.7722 100.515 27.9683C100.515 27.9683 99.5193 24.1672 102.485 19.3139C103.54 17.5529 104.436 16.5006 105.153 15.8349C104.994 16.651 104.854 17.6603 104.755 18.8629V18.8844C104.715 19.5716 104.695 20.3447 104.695 21.1822C104.695 21.2037 104.695 21.2466 104.695 21.2896C104.735 27.9683 109.095 31.0392 111.603 27.5173C112.857 25.7564 113.992 22.8787 114.449 21.3325C114.808 20.1514 114.629 19.4212 114.629 19.4212Z" fill="#FFF3A7"/>
<path d="M133.495 20.1299C133.495 20.1299 133.236 23.888 130.37 27.4958C128.538 29.7937 126.229 29.7078 125.254 25.9926C124.875 24.6182 124.617 23.1579 124.477 21.6332C125.95 20.6668 127.981 18.777 130.091 15.0618C132.042 11.6258 134.112 7.20194 133.157 4.25986C132.221 1.38221 129.792 1.23188 127.523 2.94989V2.92841C127.344 3.07873 127.165 3.22906 126.986 3.37939C126.886 3.46528 126.806 3.55119 126.707 3.63708C123.701 6.53621 122.268 10.1655 121.571 13.7304C120.755 12.5707 119.202 11.3681 116.574 12.7855C112.374 15.0403 111.637 23.5015 112.911 25.649C114.205 27.7965 118.485 25.5201 120.735 19.8722C120.814 19.7004 120.874 19.5286 120.934 19.3783C120.934 19.4857 120.934 19.593 120.934 19.6789C120.914 20.0011 120.914 20.3017 120.894 20.6024C120.894 20.7097 120.894 20.8171 120.894 20.903C120.894 20.903 120.894 20.903 120.894 20.9245C120.894 22.4707 121.033 23.5444 121.292 24.339C121.65 26.2073 122.268 27.7965 123.183 28.9562C128.439 35.4631 132.56 26.0141 133.197 23.3297C133.853 20.6453 133.495 20.1299 133.495 20.1299ZM132.4 3.74446C132.759 5.22624 127.563 17.5314 124.437 21.0748C124.119 16.4577 124.935 11.3681 127.165 6.62212C129.773 2.43448 132.042 2.34858 132.4 3.74446ZM117.669 22.2774C115.38 23.7592 115.798 17.8321 117.908 15.4698C119.759 13.3868 120.874 14.0095 121.372 14.8471C121.213 15.8349 121.113 16.8013 121.033 17.7247C120.257 19.3139 119.023 21.4184 117.669 22.2774Z" fill="#FFF3A7"/>
<path d="M141.294 24.0598C141.075 24.1243 140.876 24.1672 140.677 24.2102C141.99 22.1915 142.787 19.593 142.687 16.8872C142.428 10.8097 136.556 9.54272 134.147 12.5278C132.117 15.0403 131.699 17.875 132.296 20.2802C131.101 23.3297 130.544 27.4744 134.386 27.9898C136.178 28.2475 138.029 27.3241 139.502 25.7349C140.239 25.606 140.975 25.3483 141.712 24.9188C145.972 22.4492 145.952 19.3353 145.952 19.3353C145.952 19.3353 144.917 22.9861 141.294 24.0598ZM140.896 15.4054C141.453 18.9703 140.338 22.2345 138.865 24.2316C137.452 23.9095 136.616 22.7713 136.217 21.3325C136.874 20.452 137.491 19.8293 137.491 19.8293C137.491 19.8293 136.815 18.9917 136.038 18.2401C136.118 17.6603 136.237 17.1019 136.397 16.5436C137.432 13.2364 140.159 10.7238 140.896 15.4054ZM135.202 25.9067C134.704 25.4987 134.585 24.9188 134.704 24.2746C135.501 24.9618 136.416 25.4557 137.432 25.6705C136.596 26.2718 135.799 26.4006 135.202 25.9067Z" fill="#FFF3A7"/>
<path d="M169.985 20.1299C169.985 20.1299 169.726 23.888 166.859 27.4958C165.028 29.7937 162.719 29.7078 161.743 25.9926C161.365 24.6182 161.106 23.1579 160.967 21.6332C162.44 20.6668 164.47 18.777 166.581 15.0618C168.531 11.6258 170.602 7.20194 169.646 4.25986C168.711 1.38221 166.282 1.23188 164.013 2.94989V2.92841C163.833 3.07873 163.654 3.22906 163.475 3.37939C163.376 3.46528 163.296 3.55119 163.196 3.63708C160.19 6.53621 158.757 10.1655 158.06 13.7304C157.244 12.5707 155.692 11.3681 153.064 12.7855C148.863 15.0403 148.127 23.5015 149.401 25.649C150.695 27.7965 154.975 25.5201 157.224 19.8722C157.304 19.7004 157.364 19.5286 157.423 19.3783C157.423 19.4857 157.423 19.593 157.423 19.6789C157.404 20.0011 157.404 20.3017 157.384 20.6024C157.384 20.7097 157.384 20.8171 157.384 20.903C157.384 20.903 157.384 20.903 157.384 20.9245C157.384 22.4707 157.523 23.5444 157.782 24.339C158.14 26.2073 158.757 27.7965 159.673 28.9562C164.928 35.4631 169.049 26.0141 169.686 23.3297C170.343 20.6453 169.985 20.1299 169.985 20.1299ZM168.89 3.74446C169.248 5.22624 164.052 17.5314 160.927 21.0748C160.609 16.4577 161.425 11.3681 163.654 6.62212C166.262 2.43448 168.531 2.34858 168.89 3.74446ZM154.159 22.2774C151.869 23.7592 152.287 17.8321 154.398 15.4698C156.249 13.3868 157.364 14.0095 157.861 14.8471C157.702 15.8349 157.603 16.8013 157.523 17.7247C156.747 19.3139 155.512 21.4184 154.159 22.2774Z" fill="#FFF3A7"/>
<path d="M181.091 27.1149C181.091 27.1149 180.172 27.1149 178.471 22.5939C176.819 18.4277 180.232 15.0189 180.172 13.58C180.112 12.1197 178.938 12.2056 178.938 12.2056C178.938 12.2056 178.341 12.7855 177.724 14.0954C177.166 12.8928 175.534 10.5306 172.249 12.313C168.049 14.5679 167.312 23.029 168.586 25.1765C169.88 27.3241 174.16 25.0477 176.41 19.3998C176.43 19.3568 176.449 19.2924 176.469 19.2494C176.43 19.7863 176.41 20.3447 176.41 20.946C176.41 27.7106 176.198 28.8148 181.091 27.1149ZM173.344 21.805C171.055 23.2867 171.473 17.3596 173.583 14.9974C175.693 12.6351 176.848 13.7518 177.206 14.7182C177.266 14.8471 177.305 14.9544 177.345 15.0618C177.126 15.6631 176.927 16.3718 176.768 17.1664C175.972 18.7555 174.718 20.9245 173.344 21.805Z" fill="#FFF3A7"/>
</g>
<g filter="url(#filter4_d_305_12717)">
<path d="M22.1919 106.124C22.2967 105.104 21.0804 104.225 20.1296 104.708C15.1532 107.095 4.70443 112.749 9.12553 116.203C14.2871 120.342 20.4869 114.82 22.1919 106.124ZM29.086 109.189C28.7577 108.438 27.7851 108.256 27.2782 108.804C26.1589 110.05 24.649 112.026 24.7243 113.486C24.7156 115.762 26.9363 116.951 28.616 115.952C30.1056 115.049 30.7911 113.202 29.086 109.189ZM15.0324 101.696C15.592 101.073 15.0099 100.161 14.2384 100.215C13.6042 100.248 12.8327 100.302 11.9765 100.303C9.40806 100.304 6.12083 100.285 5.99576 102.379C5.87069 104.472 9.9085 104.641 12.6028 103.415C13.691 102.91 14.4409 102.19 15.0324 101.696Z" fill="#FAD1EF"/>
</g>
<g filter="url(#filter5_d_305_12717)">
<path d="M182.243 11.0962C182.03 11.5855 182.49 12.1947 183.036 12.0918C185.867 11.6247 191.913 10.3262 190.28 7.9847C188.389 5.19757 184.459 7.03985 182.243 11.0962ZM179.328 8.5922C179.371 9.01075 179.822 9.24005 180.159 9.04178C180.908 8.586 181.965 7.82505 182.158 7.09231C182.523 5.9681 181.616 5.06134 180.629 5.31489C179.752 5.54786 179.122 6.36295 179.328 8.5922ZM185.073 14.3123C184.698 14.5402 184.841 15.0746 185.23 15.1584C185.548 15.2331 185.937 15.3169 186.359 15.4393C187.626 15.8065 189.244 16.2871 189.636 15.2698C190.029 14.2525 188.065 13.5902 186.543 13.8102C185.926 13.9042 185.442 14.1526 185.073 14.3123Z" fill="#FFF3A7"/>
</g>
</g>
<defs>
<filter id="filter0_d_305_12717" x="162.846" y="27.2566" width="36.7032" height="48.8443" filterUnits="userSpaceOnUse" color-interpolation-filters="sRGB">
<feFlood flood-opacity="0" result="BackgroundImageFix"/>
<feColorMatrix in="SourceAlpha" type="matrix" values="0 0 0 0 0 0 0 0 0 0 0 0 0 0 0 0 0 0 127 0" result="hardAlpha"/>
<feOffset dx="0.774719" dy="0.774719"/>
<feGaussianBlur stdDeviation="0.968398"/>
<feComposite in2="hardAlpha" operator="out"/>
<feColorMatrix type="matrix" values="0 0 0 0 0 0 0 0 0 0 0 0 0 0 0 0 0 0 0.3 0"/>
<feBlend mode="normal" in2="BackgroundImageFix" result="effect1_dropShadow_305_12717"/>
<feBlend mode="normal" in="SourceGraphic" in2="effect1_dropShadow_305_12717" result="shape"/>
</filter>
<filter id="filter1_d_305_12717" x="10.0713" y="24.0335" width="160.643" height="85.5169" filterUnits="userSpaceOnUse" color-interpolation-filters="sRGB">
<feFlood flood-opacity="0" result="BackgroundImageFix"/>
<feColorMatrix in="SourceAlpha" type="matrix" values="0 0 0 0 0 0 0 0 0 0 0 0 0 0 0 0 0 0 127 0" result="hardAlpha"/>
<feOffset dx="0.774719" dy="0.774719"/>
<feGaussianBlur stdDeviation="0.968398"/>
<feComposite in2="hardAlpha" operator="out"/>
<feColorMatrix type="matrix" values="0 0 0 0 0 0 0 0 0 0 0 0 0 0 0 0 0 0 0.3 0"/>
<feBlend mode="normal" in2="BackgroundImageFix" result="effect1_dropShadow_305_12717"/>
<feBlend mode="normal" in="SourceGraphic" in2="effect1_dropShadow_305_12717" result="shape"/>
</filter>
<filter id="filter2_d_305_12717" x="159.879" y="71.8223" width="36.8985" height="30.806" filterUnits="userSpaceOnUse" color-interpolation-filters="sRGB">
<feFlood flood-opacity="0" result="BackgroundImageFix"/>
<feColorMatrix in="SourceAlpha" type="matrix" values="0 0 0 0 0 0 0 0 0 0 0 0 0 0 0 0 0 0 127 0" result="hardAlpha"/>
<feOffset dx="0.774719" dy="0.774719"/>
<feGaussianBlur stdDeviation="0.968398"/>
<feComposite in2="hardAlpha" operator="out"/>
<feColorMatrix type="matrix" values="0 0 0 0 0 0 0 0 0 0 0 0 0 0 0 0 0 0 0.3 0"/>
<feBlend mode="normal" in2="BackgroundImageFix" result="effect1_dropShadow_305_12717"/>
<feBlend mode="normal" in="SourceGraphic" in2="effect1_dropShadow_305_12717" result="shape"/>
</filter>
<filter id="filter3_d_305_12717" x="21.4986" y="0.59842" width="162.304" height="33.3128" filterUnits="userSpaceOnUse" color-interpolation-filters="sRGB">
<feFlood flood-opacity="0" result="BackgroundImageFix"/>
<feColorMatrix in="SourceAlpha" type="matrix" values="0 0 0 0 0 0 0 0 0 0 0 0 0 0 0 0 0 0 127 0" result="hardAlpha"/>
<feOffset dx="0.774719" dy="0.774719"/>
<feGaussianBlur stdDeviation="0.968398"/>
<feComposite in2="hardAlpha" operator="out"/>
<feColorMatrix type="matrix" values="0 0 0 0 0 0 0 0 0 0 0 0 0 0 0 0 0 0 0.3 0"/>
<feBlend mode="normal" in2="BackgroundImageFix" result="effect1_dropShadow_305_12717"/>
<feBlend mode="normal" in="SourceGraphic" in2="effect1_dropShadow_305_12717" result="shape"/>
</filter>
<filter id="filter4_d_305_12717" x="4.83109" y="99.0506" width="27.9673" height="21.2657" filterUnits="userSpaceOnUse" color-interpolation-filters="sRGB">
<feFlood flood-opacity="0" result="BackgroundImageFix"/>
<feColorMatrix in="SourceAlpha" type="matrix" values="0 0 0 0 0 0 0 0 0 0 0 0 0 0 0 0 0 0 127 0" result="hardAlpha"/>
<feOffset dx="0.774719" dy="0.774719"/>
<feGaussianBlur stdDeviation="0.968398"/>
<feComposite in2="hardAlpha" operator="out"/>
<feColorMatrix type="matrix" values="0 0 0 0 0 0 0 0 0 0 0 0 0 0 0 0 0 0 0.3 0"/>
<feBlend mode="normal" in2="BackgroundImageFix" result="effect1_dropShadow_305_12717"/>
<feBlend mode="normal" in="SourceGraphic" in2="effect1_dropShadow_305_12717" result="shape"/>
</filter>
<filter id="filter5_d_305_12717" x="178.126" y="4.10989" width="15.1402" height="14.4817" filterUnits="userSpaceOnUse" color-interpolation-filters="sRGB">
<feFlood flood-opacity="0" result="BackgroundImageFix"/>
<feColorMatrix in="SourceAlpha" type="matrix" values="0 0 0 0 0 0 0 0 0 0 0 0 0 0 0 0 0 0 127 0" result="hardAlpha"/>
<feOffset dx="0.774719" dy="0.774719"/>
<feGaussianBlur stdDeviation="0.968398"/>
<feComposite in2="hardAlpha" operator="out"/>
<feColorMatrix type="matrix" values="0 0 0 0 0 0 0 0 0 0 0 0 0 0 0 0 0 0 0.3 0"/>
<feBlend mode="normal" in2="BackgroundImageFix" result="effect1_dropShadow_305_12717"/>
<feBlend mode="normal" in="SourceGraphic" in2="effect1_dropShadow_305_12717" result="shape"/>
</filter>
<clipPath id="clip0_305_12717">
<rect width="200" height="124.257" fill="white" transform="translate(0 0.598389)"/>
</clipPath>
</defs>
</svg>
