<svg width="252" height="151" viewBox="0 0 252 151" fill="none" xmlns="http://www.w3.org/2000/svg">
<g clip-path="url(#clip0_323_1513)">
<g filter="url(#filter0_d_323_1513)">
<path d="M103.772 127C102.605 128.29 100.401 128.419 95.9931 129.58C92.8814 130.226 88.9053 130.656 84.7564 131.301C84.3674 126.14 84.7561 106.745 85.4044 97.7146C85.4044 97.7146 87.4789 72.1702 87.7382 67.6548C87.9975 63.5264 81.1258 62.2363 81.1258 62.2363C74.9024 61.0752 71.661 61.7202 70.1051 62.8813C66.9934 63.6554 64.7393 64.8902 62.9241 66.0513C57.2193 69.7927 59.285 67.9695 61.1001 69.9046C61.5293 69.9046 67.2527 69.2029 68.8086 68.1708C69.4569 71.1381 69.4569 77.7177 69.3272 83.6523C69.1976 89.8448 68.679 132.419 70.3645 134.87C71.0128 135.773 72.4389 136.289 74.1245 136.676C80.0886 137.966 103.254 134.311 108.958 134.311C104.204 128.29 109.78 130.527 108.094 127.43C107.143 126.828 104.68 125.968 103.772 127Z" fill="#BF17E6"/>
<path d="M134.327 63.0104C128.752 63.2684 127.715 75.5245 127.715 75.5245C127.585 77.5887 127.067 83.0072 126.159 87.9097C124.992 93.9732 123.307 99.3917 122.27 99.6497C120.065 100.295 119.936 96.1664 119.936 96.1664C120.195 87.9097 120.454 71.1381 120.843 67.3968C121.103 64.5585 117.732 63.2684 114.101 63.0104C105.285 62.3653 108.397 68.5579 108.397 68.5579C108.656 70.235 108.526 72.6863 108.526 76.6856C108.397 81.4591 108.267 89.5868 108.267 96.6825C108.267 96.6825 106.23 105.876 115.176 108.327C119.584 109.618 124.863 106.229 127.456 99.5207C127.456 102.488 127.835 104.053 127.835 104.956C127.835 104.956 127.835 106.634 133.28 106.892C137.429 107.021 138.808 107.021 138.856 106.505C138.985 105.085 139.643 94.7473 139.643 87.7807C139.773 83.2652 140.032 73.5893 139.254 68.1708C139.254 68.1708 138.995 62.7523 134.327 63.0104Z" fill="#FAD1EF"/>
<path d="M180.313 77.8467C180.184 74.1054 178.239 69.977 174.479 68.6869C172.275 67.9128 170.589 68.4289 170.589 68.4289C167.478 69.3319 163.199 76.9436 160.736 81.7171C161.125 76.2986 161.254 73.2023 161.384 71.3961C161.773 68.2998 157.624 66.2357 153.216 66.1066C147.251 65.8486 147.511 68.6869 148.029 70.7511C148.289 71.6542 148.418 72.9443 148.418 72.9443C148.548 74.3634 148.418 75.1375 148.289 79.1368C148.159 86.3615 148.33 102.359 148.719 110.229C148.719 110.229 150.794 114.572 153.906 114.959C159.61 115.604 159.092 112.379 159.092 112.379C159.61 109.799 159.309 106.1 159.309 102.875C159.309 100.811 159.569 96.8115 159.958 92.2961C162.162 83.9103 169.034 72.2992 169.811 73.5893C170.589 74.8795 168.645 86.4905 167.996 91.0059C167.348 95.5214 167.218 106.358 168.515 110.745C169.682 115.131 173.786 114.529 178.972 112.809C181.306 112.551 183.294 112.379 183.294 112.379C182.775 107.089 180.443 81.5881 180.313 77.8467Z" fill="#BF17E6"/>
<path d="M209.657 105.498C211.083 106.272 214.67 107.691 215.707 106.788C216.485 105.885 212.855 84.7703 213.115 82.7062C213.115 82.7062 218.648 59.269 213.332 58.624C206.85 57.8499 205.942 64.9455 205.942 64.9455C204.775 62.4943 202.96 60.4301 199.978 60.3011C192.328 59.9141 184.29 71.6542 183.771 82.6202C183.382 93.5862 187.142 102.875 188.568 104.681C190.643 107.39 198.852 100.768 198.852 100.768C204.816 101.026 203.867 97.8436 205.942 91.522C205.942 91.522 205.897 103.434 209.657 105.498ZM195.829 95.1343C193.625 94.2312 194.273 84.0393 194.273 84.0393C194.532 76.9437 196.866 63.2684 200.367 65.0746C203.09 66.4937 204.775 74.3634 205.553 78.2338C202.312 92.9411 197.385 95.6504 195.829 95.1343Z" fill="#FAD1EF"/>
<path d="M118.67 100.843C117.502 100.923 116.543 101.598 116.014 102.118C115.798 102.329 115.661 102.608 115.569 102.902C115.386 103.495 115.418 104.139 115.661 104.709L115.707 104.817L115.775 104.951C116.205 105.797 116.851 106.503 117.642 106.99C118.968 107.774 120.377 108.395 121.84 108.842L121.875 108.853L123.024 109.287L123.431 109.426C123.585 109.479 123.64 109.676 123.538 109.807C123.518 109.833 123.494 109.854 123.466 109.869L122.983 110.133C122.73 110.272 122.458 110.371 122.177 110.426L121.545 110.551C121.202 110.619 120.853 110.653 120.503 110.653C119.93 110.653 119.36 110.561 118.813 110.381L117.945 110.094L116.191 109.287L114.902 108.586C114.392 108.309 113.907 107.984 113.453 107.615C112.941 107.199 112.39 106.839 111.808 106.541L111.232 106.245L110.696 106.047C110.063 105.813 109.374 105.8 108.733 106.012L108.495 106.09C108.188 106.192 107.907 106.368 107.677 106.604C107.431 106.857 107.25 107.171 107.152 107.517L107.109 107.667C106.959 108.197 106.965 108.761 107.128 109.286L107.136 109.311C107.245 109.664 107.421 109.991 107.652 110.274L107.952 110.641C108.361 111.141 108.857 111.557 109.415 111.866L110.091 112.241C110.569 112.507 111.068 112.726 111.583 112.899L113.409 113.509L115.707 114.068L117.945 114.937L119.105 115.248C119.253 115.288 119.381 115.384 119.463 115.519C119.572 115.698 119.586 115.923 119.501 116.116L119.455 116.22C119.378 116.394 119.245 116.535 119.08 116.62L118.752 116.789C118.499 116.919 118.222 116.986 117.94 116.986H117.583C117.341 116.986 117.1 116.959 116.863 116.905L115.042 116.489L112.684 115.62L111.639 115.24C111.087 115.038 110.556 114.779 110.055 114.466C109.631 114.201 109.186 113.975 108.725 113.79L108.027 113.509L107.483 113.196C106.855 112.835 106.131 112.696 105.421 112.8L105.205 112.832C104.952 112.869 104.707 112.954 104.483 113.082L104.25 113.214C103.919 113.403 103.671 113.719 103.558 114.095C103.514 114.242 103.492 114.394 103.492 114.548V114.744C103.492 115.314 103.659 115.871 103.97 116.34L104.109 116.55C104.301 116.839 104.533 117.097 104.796 117.317L105.366 117.793L105.843 118.102C106.29 118.392 106.765 118.631 107.261 118.817C107.65 118.962 108.05 119.073 108.457 119.149L109.176 119.283L110.809 119.594L112.684 119.842L113.594 119.914C114.557 119.99 115.508 120.174 116.433 120.463L117.212 120.743C117.497 120.845 117.761 120.999 117.994 121.198L118.237 121.406C118.323 121.48 118.396 121.571 118.45 121.673L118.504 121.775C118.642 122.034 118.62 122.353 118.448 122.589C118.395 122.661 118.33 122.723 118.256 122.77L117.918 122.99C117.461 123.286 116.934 123.443 116.395 123.443H115.703C115.424 123.443 115.146 123.42 114.87 123.374L113.409 123.133L111.656 122.698L109.418 122.201L108.269 121.783C107.786 121.607 107.29 121.47 106.787 121.375L106.169 121.257C105.997 121.224 105.823 121.208 105.648 121.208H105.263C104.86 121.208 104.468 121.349 104.152 121.609L104.041 121.7C103.841 121.865 103.69 122.087 103.608 122.34C103.532 122.574 103.518 122.826 103.568 123.068L103.613 123.292C103.692 123.675 103.867 124.03 104.121 124.32L104.524 124.779C104.722 125.005 104.943 125.209 105.182 125.387C105.662 125.742 106.21 125.988 106.788 126.107L108.027 126.361L110.809 126.858L113.167 127.168L114.297 127.367C114.954 127.483 115.619 127.541 116.284 127.541H116.833C117.09 127.541 117.346 127.562 117.6 127.603L118.414 127.737C118.623 127.771 118.82 127.855 118.993 127.981L119.041 128.017C119.377 128.263 119.577 128.665 119.577 129.093C119.577 129.591 119.333 130.062 118.929 130.328C118.798 130.415 118.654 130.478 118.503 130.515L117.839 130.679C117.427 130.78 117.005 130.831 116.582 130.831H116.016C115.368 130.831 114.722 130.768 114.085 130.641L113.167 130.459L111.474 130.024L110.197 129.754C109.684 129.646 109.155 129.661 108.649 129.797L108.525 129.831C108.355 129.877 108.19 129.943 108.034 130.028L107.598 130.265C107.368 130.39 107.191 130.599 107.102 130.852C107.035 131.042 107.02 131.247 107.058 131.444L107.167 132.003C107.216 132.256 107.296 132.501 107.403 132.733L107.678 133.327C107.79 133.567 107.924 133.794 108.079 134.006C108.403 134.451 108.815 134.82 109.285 135.088L109.477 135.198C109.958 135.472 110.481 135.659 111.022 135.752L111.656 135.86C113.909 136.108 116.179 136.154 118.44 135.998L120.424 135.86H122.314C123.268 135.86 124.217 135.986 125.141 136.233L126.834 136.854L129.374 137.599C130.983 138.301 132.651 138.847 134.357 139.229L135.119 139.399L136.266 139.635C137.313 139.85 138.378 139.958 139.445 139.958H139.846C140.523 139.958 141.2 139.897 141.867 139.776C143.243 139.527 144.566 139.025 145.774 138.294L146.306 137.971L146.672 137.725C147.838 136.938 148.948 136.066 149.995 135.115L150.227 134.839C151.804 132.956 153.242 130.953 154.531 128.845L155.402 127.205C155.546 126.934 155.731 126.689 155.951 126.481C156.25 126.198 156.606 125.987 156.993 125.865L157.354 125.751C157.768 125.62 158.197 125.554 158.629 125.554H159.117C159.603 125.554 160.083 125.654 160.531 125.847C160.843 125.982 161.136 126.161 161.401 126.379L161.441 126.412C161.751 126.667 162.024 126.966 162.25 127.303L162.453 127.603L163.178 128.845L164.993 132.011L166.026 133.375C167.026 134.695 168.19 135.87 169.488 136.869L169.739 137.063C170.524 137.667 171.363 138.19 172.246 138.624C173.293 139.139 174.394 139.526 175.526 139.777L176.906 140.082C179.066 140.247 181.237 140.015 183.321 139.398L186.46 138.468L189.968 137.226L191.037 136.866C193.133 136.159 195.323 135.798 197.527 135.798L200.127 136.171H202.788H202.898C204.225 136.171 205.54 135.918 206.779 135.426L208 134.944C208.234 134.851 208.458 134.735 208.67 134.597L208.881 134.459C209.402 134.118 209.81 133.619 210.05 133.029L210.092 132.926C210.22 132.609 210.287 132.268 210.287 131.924V131.778C210.287 131.21 210.071 130.658 209.694 130.247C209.451 129.982 209.142 129.781 208.805 129.673C208.507 129.577 208.191 129.553 207.883 129.603L206.928 129.756C206.587 129.811 206.252 129.894 205.925 130.006L204.421 130.521C203.335 130.769 202.228 130.893 201.117 130.893H200.732H200.233C199.962 130.893 199.694 130.851 199.435 130.767L199.043 130.64C198.803 130.562 198.591 130.414 198.431 130.213L198.351 130.113C198.209 129.935 198.132 129.711 198.132 129.48C198.132 129.195 198.25 128.923 198.456 128.735L198.496 128.698C198.615 128.59 198.754 128.511 198.905 128.465L200.127 128.1L202.123 127.789L203.937 127.541L206.779 127.168L207.427 127.057C208.683 126.842 209.908 126.462 211.073 125.926L212.079 125.551C212.294 125.47 212.499 125.363 212.689 125.23L213.114 124.932C213.508 124.657 213.768 124.217 213.827 123.727C213.845 123.58 213.845 123.43 213.826 123.283L213.792 123.021C213.753 122.726 213.658 122.442 213.512 122.186L213.48 122.131C213.253 121.734 212.902 121.431 212.487 121.271C212.271 121.188 212.044 121.146 211.814 121.146H211.465C211.204 121.146 210.944 121.173 210.688 121.228L209.921 121.391C209.521 121.475 209.13 121.603 208.755 121.772C208.486 121.892 208.209 121.992 207.927 122.07L206.779 122.388L205.693 122.72C204.524 123.077 203.33 123.34 202.123 123.505H201.197C200.729 123.505 200.265 123.421 199.825 123.257L199.487 123.133C199.167 123.015 198.918 122.748 198.815 122.411C198.726 122.118 198.756 121.801 198.897 121.531L198.909 121.509C199.032 121.274 199.228 121.089 199.465 120.985L200.124 120.695C200.287 120.623 200.456 120.566 200.628 120.523L202.123 120.152L204.905 119.842L208.352 119.159C209.788 118.913 211.175 118.358 212.403 117.545L213.232 116.854C213.324 116.777 213.408 116.689 213.483 116.593C213.723 116.285 213.855 115.9 213.855 115.503V115.185V114.903C213.855 114.598 213.789 114.298 213.663 114.023L213.649 113.991C213.469 113.599 213.167 113.28 212.792 113.088C212.536 112.956 212.255 112.888 211.97 112.888H211.596C211.092 112.888 210.594 113.003 210.137 113.223L209.803 113.385L208.11 114.13L206.416 114.937L204.179 115.806L202.546 116.427L201.602 116.669C200.783 116.88 199.943 116.986 199.099 116.986H198.524C198.285 116.986 198.068 116.84 197.97 116.613C197.918 116.492 197.903 116.357 197.929 116.227L197.982 115.954C198.076 115.473 198.39 115.07 198.823 114.876L199.966 114.364C200.314 114.209 200.681 114.108 201.057 114.065L202.123 113.944L204.421 113.385L206.416 112.64L207.626 112.081L208.79 111.569C209.139 111.415 209.454 111.189 209.716 110.903L209.728 110.89C210.093 110.492 210.338 109.99 210.434 109.45C210.496 109.097 210.493 108.734 210.425 108.383C210.334 107.917 210.131 107.483 209.835 107.122L209.767 107.039C209.472 106.68 209.105 106.39 208.687 106.206C208.234 106.006 207.753 105.81 207.626 105.81C207.432 105.81 206.739 105.976 206.416 106.059C205.414 106.347 204.46 106.791 203.585 107.377L203.514 107.425L202.546 108.294L201.518 109.039L200.127 109.846L199.751 110.005C199.317 110.188 198.869 110.33 198.41 110.428C197.903 110.536 197.387 110.591 196.869 110.591H196.559H195.471L195.258 110.573C194.92 110.544 194.591 110.442 194.292 110.275L194.151 110.196C194.104 110.17 194.059 110.139 194.018 110.103C193.827 109.94 193.585 109.533 193.825 109.475C193.829 109.474 193.834 109.473 193.838 109.473C193.935 109.473 194.564 109.349 194.866 109.287L196.257 108.915L196.724 108.737C197.5 108.442 198.254 108.086 198.978 107.673L199.053 107.629C199.848 107.162 200.518 106.479 201.337 106.059C201.7 105.438 201.7 105.108 201.7 104.589V104.258V103.265C201.679 103.058 201.615 102.607 201.518 102.458C201.397 102.271 201.337 102.209 201.216 102.023C201.095 101.837 200.551 101.464 200.369 101.34C200.224 101.241 199.744 101.092 199.522 101.03C199.22 100.988 198.519 100.918 198.132 100.967C197.745 101.017 197.446 101.154 197.345 101.216L196.559 101.588L195.471 102.209C194.906 102.644 193.608 103.637 192.931 104.134C192.084 104.755 191.419 104.755 190.391 105.438C189.363 106.121 188.456 106.121 187.67 106.493C187.041 106.791 186.118 106.866 185.735 106.866H184.041H181.018L178.72 106.99L177.329 107.238L175.273 107.859C174.386 108.232 172.261 109.2 170.858 110.094C169.105 111.212 168.56 111.895 167.835 112.329C167.254 112.677 166.142 113.84 165.658 114.378C165.014 115.163 164.455 116.022 163.828 116.822C163.637 117.065 163.435 117.298 163.239 117.483C162.658 118.029 161.747 118.207 161.364 118.228H159.248C158.179 118.228 155.813 118.215 154.894 118.166C153.745 118.104 153.321 116.856 152.596 115.924C151.87 114.993 150.721 113.571 150.54 113.323C150.394 113.124 148.221 111.377 147.153 110.529C146.004 109.763 143.646 108.194 143.404 108.045C141.98 107.168 140.222 107.122 138.575 106.951C137.626 106.852 136.802 106.789 136.752 106.866C136.631 107.052 131.491 106.617 131.309 106.679C131.128 106.742 128.467 105.997 127.56 105.686C126.834 105.438 125.484 104.713 124.899 104.382C123.128 103.101 121.537 101.285 119.414 100.891C119.167 100.845 118.918 100.826 118.67 100.843Z" fill="#FFF3A7"/>
<ellipse cx="180.578" cy="124.094" rx="10.5308" ry="10.9704" fill="#FAD1EF"/>
<path d="M148.143 124.094C148.143 130.153 143.428 135.065 137.612 135.065C131.796 135.065 127.081 130.153 127.081 124.094C127.081 118.036 131.796 113.124 137.612 113.124C143.428 113.124 148.143 118.036 148.143 124.094Z" fill="#FAD1EF"/>
</g>
<g filter="url(#filter1_d_323_1513)">
<path d="M36.3402 25.1536L42.9911 27.5249C45.4446 28.4057 47.4046 30.3582 48.3865 32.9003L59.3632 61.4058L60.3499 63.9754L60.6686 64.7975L57.8179 67.1111L32.7319 43.5502C31.3579 42.2616 30.5558 40.4186 30.5133 38.4333C30.4269 34.1347 30.3772 26.8359 31.0345 26.1626C31.1648 26.0387 31.3524 25.9246 31.5836 25.8258C32.0465 25.6286 32.6907 25.4884 33.3579 25.3894C34.8017 25.1704 36.3402 25.1536 36.3402 25.1536" fill="#FAD1EF"/>
<path d="M36.3492 25.1498L43.0231 27.5114C45.4851 28.3886 47.4503 30.3386 48.4328 32.8799L59.4161 61.3768L60.4033 63.9456C59.1443 65.3254 57.8198 62.9734 57.8198 62.9734C57.8198 62.9734 48.6639 47.6252 44.4079 39.1622C40.1575 30.7062 37.3577 30.9212 35.4018 29.8064C33.445 28.6987 31.5732 25.8297 31.5732 25.8297C32.0381 25.6317 32.685 25.4905 33.3549 25.3904C34.8047 25.169 36.3492 25.1498 36.3492 25.1498" fill="#FFF3A7"/>
<path d="M36.4553 25.259L43.0946 27.6215C45.5446 28.4936 47.4993 30.438 48.4777 32.9767L59.4262 61.3905C58.8969 62.075 58.4537 62.3612 58.3602 62.2412C58.0853 61.8873 45.8636 34.913 45.6004 34.3077C45.3375 33.7022 43.5976 29.8516 40.1338 28.4091C36.6762 26.9674 35.7079 27.2633 35.4104 26.9628C35.1124 26.6629 33.5391 25.6081 33.5391 25.6081C33.5162 25.5733 33.4933 25.5311 33.4771 25.4961C34.919 25.2768 36.4553 25.259 36.4553 25.259" fill="#FAD1EF"/>
<path d="M26.1484 4.41141C26.1484 4.41141 29.5539 8.85331 31.0849 13.252C32.6424 17.7333 31.9467 16.4016 32.8048 22.622L32.8038 22.6358C32.8424 22.9781 32.8987 23.3412 32.953 23.7315L32.9062 24.6216L31.3713 25.3631L30.3678 27.3201C30.3678 27.3201 30.0726 28.4439 29.4115 28.0263C29.1852 27.8869 28.1339 27.1997 26.683 26.209L26.6649 26.1946C23.8711 24.2996 19.6271 21.3181 16.9556 18.9859C16.8414 18.8856 16.7331 18.7922 16.6251 18.6922L16.6186 18.692C12.8991 15.3799 13.1597 14.6289 13.1597 14.6289C13.1597 14.6289 13.1614 14.6089 13.1707 14.5685L13.1712 14.5616C13.2567 14.184 13.7268 12.2513 14.8042 12.0678C15.0445 12.0241 15.2705 12.0001 15.4694 11.9956C16.2667 11.956 16.7344 12.1267 16.7344 12.1267C16.7344 12.1267 16.7548 11.7666 16.8246 11.2595C16.9495 10.3528 17.2369 8.98327 17.8601 8.35762C17.9775 8.24025 18.1806 8.09273 18.4498 8.00952C18.8235 7.89045 19.3235 7.89198 19.8968 8.27848L19.9022 8.29221C20.6868 7.64649 20.3273 6.36378 20.3273 6.36378L20.7982 6.23547L21.832 5.94826L21.9495 5.91261C21.9495 5.91261 23.4232 6.4273 24.1877 7.52404C24.2944 7.29703 24.4065 7.0778 24.5246 6.87169C25.2884 5.46926 26.1484 4.41141 26.1484 4.41141" fill="#FAD1EF"/>
<path d="M21.9217 5.95129C21.9217 5.95129 23.4253 7.6591 25.5222 11.8683C27.6194 16.0774 30.5779 23.2138 31.3994 24.0965C32.2212 24.9791 32.2212 24.9791 32.2212 24.9791C32.2212 24.9791 30.4566 22.1875 29.0002 17.5773C27.5435 12.9677 24.1859 7.54957 24.1859 7.54957C24.1859 7.54957 23.0159 6.25812 21.9217 5.95129Z" fill="#FAD1EF"/>
<path d="M20.3226 6.36558C22.6886 10.4262 27.319 21.0752 27.4612 21.4111C27.3859 21.3047 26.5864 20.174 24.7541 16.4842C22.8276 12.5901 19.9154 8.30169 19.9154 8.30169C20.6891 7.65737 20.3226 6.36558 20.3226 6.36558" fill="#FAD1EF"/>
<path d="M31.2389 26.8038C31.0382 27.6479 30.6729 28.4537 30.7579 29.3403C31.0286 32.1694 31.3847 34.967 31.5387 37.8294C31.644 39.7787 32.0289 41.7052 33.39 43.0653C34.6684 44.3431 36.0452 45.494 37.4395 46.6105C42.4736 50.6425 53.7245 61.0496 54.7246 61.6017C54.4833 61.4686 55.5673 60.401 55.6639 60.3349C55.4728 60.4666 40.2645 38.0415 39.8317 37.3776C39.4509 36.7934 39.0218 36.25 38.5878 35.7137C37.544 34.4222 36.4671 33.1604 35.3158 31.985C34.5507 31.2031 33.6569 30.5787 32.9415 29.7368C32.1898 28.8523 31.961 27.723 31.2389 26.8038" fill="#FFF3A7"/>
<path d="M18.5085 8.06499C19.0497 8.12684 19.5284 8.56895 19.8888 9.02682C20.9686 10.4069 21.6896 12.0534 22.4256 13.673C23.0352 15.0008 23.6582 16.3223 24.3156 17.625C25.3204 19.6239 26.4123 21.5917 27.8535 23.2589C26.0132 21.624 24.1669 19.9819 22.3199 18.3464C21.5066 17.6184 20.6859 16.8972 19.9582 16.0766C19.4385 15.4964 18.9617 14.8705 18.5256 14.2187C18.1299 13.6363 17.7684 13.0282 17.4213 12.4071C17.2455 12.0863 16.9884 11.7212 16.8435 11.3332C16.9745 10.4232 17.2724 9.04822 17.9082 8.41735C18.0279 8.29899 18.2348 8.14993 18.5085 8.06499" fill="#FFF3A7"/>
<path d="M15.4621 12.035C15.7721 12.48 16.0605 12.9519 16.364 13.3969C16.8719 14.1457 17.4284 14.848 17.9907 15.5575C18.3929 16.0689 18.8019 16.58 19.2109 17.0911C19.8151 17.8506 20.3943 18.6774 21.133 19.2918C21.9936 20.014 22.8604 20.7363 23.7207 21.4587C24.844 22.3903 25.9671 23.3296 27.0834 24.2683C27.9989 25.034 29.0518 25.7023 29.6719 26.7576C29.3363 26.7298 29.0076 26.7848 28.6632 26.7842C28.2672 26.7812 27.8641 26.7025 27.4833 26.5839C27.2486 26.5125 27.0214 26.4271 26.8018 26.3289L26.7835 26.3145C23.9546 24.4123 19.6576 21.4191 16.9538 19.0759C16.8382 18.9752 16.7286 18.8812 16.6192 18.7808L16.6127 18.7806C16.1225 18.3138 15.6403 17.8272 15.1728 17.3202C14.4421 16.5147 13.68 15.6181 13.1255 14.6343L13.126 14.6274C13.2135 14.2465 13.6945 12.2975 14.7874 12.1096C15.0311 12.0649 15.2604 12.0401 15.4621 12.035" fill="#FFF3A7"/>
<path d="M21.7794 5.9166C22.0424 6.30435 22.2558 6.65628 22.3261 6.76212C23.607 8.81069 24.4897 11.1049 25.4357 13.3461C26.9765 16.9847 28.7278 20.5218 30.4727 24.0518C28.0307 21.4143 25.9187 18.4055 24.454 15.0447C23.9011 13.7799 23.4421 12.4776 22.9371 11.1873C22.3668 9.72287 21.7293 8.28982 21.0368 6.88938C20.9246 6.65848 20.8177 6.44104 20.7249 6.21099L21.7794 5.9166" fill="#FFF3A7"/>
<path d="M26.1454 4.3292C26.1454 4.3292 28.9754 8.79966 30.5197 13.2483C32.0909 17.7809 31.5431 16.3799 32.4344 22.66L32.4119 23.0037C32.3704 23.3451 31.9953 22.9213 31.8229 23.2271C31.5411 22.1141 31.5279 22.616 31.1492 21.5386C30.5304 19.7755 30.1847 16.9843 29.4347 15.2896C28.6013 13.412 27.768 11.5345 26.7033 9.80884C26.073 8.79335 25.3687 7.84223 24.6513 6.90414C24.6219 6.8683 24.5926 6.83246 24.5571 6.79617C25.3025 5.38853 26.1454 4.3292 26.1454 4.3292" fill="#FFF3A7"/>
<path d="M16.5716 11.0038C16.5716 11.0038 18.7703 14.8628 21.3117 16.9552C23.8535 19.0475 29.6611 24.963 29.6611 24.963C29.6611 24.963 24.8049 20.4767 22.5528 18.51C20.3007 16.5434 17.8248 14.2839 17.4522 13.5598C17.0791 12.8356 16.5716 11.0038 16.5716 11.0038" fill="#FAD1EF"/>
<path d="M53.8449 63.0089L53.8341 63.2791L60.132 69.5224L60.3392 68.935C60.4546 67.8849 61.242 67.4533 62.0471 68.0381L62.2955 67.6814L58.6072 59.4158C56.3429 58.6545 53.9499 60.4604 53.8449 63.0089Z" fill="#BF17E6"/>
<path d="M30.5578 29.6395C30.5578 29.6395 30.609 27.8177 31.8439 26.6778C33.0788 25.5379 33.9819 25.3663 33.9819 25.3663L33.0126 23.7909C33.0126 23.7909 31.6075 22.9942 30.2499 25.0684C28.8921 27.1422 29.1573 28.2646 29.1573 28.2646L30.5578 29.6395Z" fill="#BF17E6"/>
<path d="M57.8746 67.2631C57.8746 67.2631 57.2529 65.2394 58.7187 64.4196C60.1845 63.6001 60.5887 63.8552 60.5887 63.8552L59.1854 60.7109C59.1854 60.7109 57.0324 60.0983 55.5445 62.28C54.8242 63.3369 55.0656 64.4933 55.0656 64.4933L57.8746 67.2631Z" fill="#BF17E6"/>
<path d="M61.4413 67.2906C62.0331 67.0491 62.4195 67.4039 62.3043 68.0839C62.1891 68.7638 61.6161 69.5109 61.0245 69.7527C60.4325 69.9948 60.0463 69.6394 60.1615 68.9594C60.2768 68.2798 60.8494 67.5326 61.4413 67.2906Z" fill="#BF17E6"/>
<path d="M61.6502 67.7867C62 67.6421 62.2251 67.8446 62.1527 68.2393C62.0805 68.6343 61.7382 69.0719 61.3878 69.2169C61.0383 69.3619 60.8132 69.1594 60.8855 68.7647C60.9578 68.3692 61.3004 67.9319 61.6502 67.7867Z" fill="#BF17E6"/>
</g>
<path d="M77.8518 28.3418C74.8287 26.604 71.7062 30.895 67.808 41.258C67.0124 43.425 66.3959 45.1843 65.9583 46.6433C66.1572 43.8326 66.3163 40.55 66.3561 37.4818C66.4357 30.2728 65.7396 27.7196 64.6656 26.7756C63.5916 25.853 63.7109 27.3549 63.4921 30.9379C63.2535 34.521 61.6027 50.7627 62.0602 51.4922C62.5176 52.2002 64.5065 54.453 65.0037 53.7665C65.0236 53.7665 65.0236 53.745 65.0236 53.745L65.0435 53.7665C65.0435 53.7665 65.0634 53.7021 65.1031 53.5734C65.1031 53.5519 65.123 53.5305 65.123 53.509C65.8987 51.0846 72.0045 32.2253 74.6497 31.2383C76.2607 30.6161 73.9337 50.5053 74.5702 52.5435C75.2663 54.7534 78.0905 54.1527 78.0905 54.1527C78.0905 54.1527 81.3323 30.3157 77.8518 28.3418Z" fill="#780C92"/>
<path d="M91.0251 48.7888C90.8063 48.8532 90.6075 48.8961 90.4086 48.939C91.7212 46.9222 92.5168 44.3261 92.4173 41.6227C92.1588 35.5509 86.2916 34.285 83.8851 37.2673C81.8564 39.7776 81.4388 42.6097 82.0354 45.0127C80.8421 48.0593 80.2852 52.2002 84.1237 52.7152C85.9137 52.9726 87.7634 52.05 89.2351 50.4623C89.971 50.3336 90.7069 50.0761 91.4428 49.647C95.699 47.1797 95.6791 44.0686 95.6791 44.0686C95.6791 44.0686 94.6449 47.7161 91.0251 48.7888ZM90.6273 40.1423C91.1842 43.7039 90.0705 46.9651 88.5987 48.9605C87.1866 48.6386 86.3513 47.5015 85.9535 46.064C86.6098 45.1843 87.2264 44.5621 87.2264 44.5621C87.2264 44.5621 86.5502 43.7254 85.7745 42.9744C85.8541 42.3951 85.9734 41.8373 86.1325 41.2794C87.1667 37.9753 89.8915 35.465 90.6273 40.1423ZM84.9392 50.634C84.442 50.2263 84.3226 49.647 84.442 49.0034C85.2375 49.69 86.1524 50.1834 87.1667 50.398C86.3314 50.9987 85.5358 51.1275 84.9392 50.634Z" fill="#780C92"/>
<path d="M121.738 43.9399C121.738 43.9399 118.238 55.7404 115.712 49.3681C114.061 45.2058 116.07 40.3998 116.01 38.9408C115.971 37.7608 114.181 37.4604 113.544 37.396L113.524 37.3746C113.524 37.3746 113.524 37.3746 113.524 37.396C113.385 37.3746 113.306 37.3746 113.306 37.3746C113.306 37.3746 113.067 37.7178 112.769 38.5546C111.655 40.3569 109.706 43.897 109.089 47.2226C109.308 44.2617 109.785 41.1722 109.746 40.0136C109.706 38.383 108.055 37.8895 107.2 37.7822C106.961 37.7393 106.782 37.7393 106.722 37.7608C106.722 37.7608 106.722 37.7608 106.703 37.7608C106.703 37.7608 106.703 37.7608 106.703 37.7822C105.788 39.091 103.182 43.0602 102.327 46.8149C102.546 43.9828 102.983 41.1078 102.944 40.0136C102.904 37.868 100.06 37.6964 99.9205 37.7608C99.9205 37.7608 98.8266 41.4296 98.7471 47.3299C98.7073 49.7114 99.1051 54.2814 102.506 52.4792C102.387 52.0715 102.307 51.5995 102.247 51.0846C102.228 49.5398 102.466 46.9008 103.998 43.8112C104.853 42.0733 105.569 41.022 106.146 40.3569C105.867 42.0089 105.589 44.3905 105.549 47.3299C105.509 49.7114 105.907 54.2814 109.308 52.4792C109.228 52.2646 109.189 52.0286 109.149 51.7926C109.049 50.4838 109.049 47.4586 110.72 43.8326C111.237 42.6955 111.715 41.8587 112.112 41.2365C112.013 41.8587 111.933 42.5668 111.874 43.3821V43.4035C111.834 44.0901 111.814 44.8625 111.814 45.6993C111.814 45.7207 111.814 45.7636 111.814 45.8065C111.854 52.4792 116.209 55.5473 118.715 52.0286C119.968 50.2692 121.102 47.3942 121.559 45.8494C121.917 44.6694 121.738 43.9399 121.738 43.9399Z" fill="#780C92"/>
<path d="M137.917 42.9744C137.917 42.9744 134.417 54.7749 131.891 48.3812C130.221 44.2403 132.249 39.4343 132.189 37.9753C132.13 36.5163 129.485 36.4091 129.485 36.4091C129.485 36.4091 129.226 36.7738 128.908 37.6535C128.808 37.9753 128.689 38.383 128.57 38.855C128.431 39.4128 128.311 40.0565 128.212 40.8289C127.476 44.6265 125.606 53.0155 124.075 48.3812C122.663 44.133 124.433 39.4343 124.373 37.9753C124.314 36.5163 121.668 36.4091 121.668 36.4091C121.668 36.4091 121.41 36.7738 121.111 37.6535C120.992 37.9753 120.873 38.383 120.753 38.855C120.535 39.7561 120.336 40.9147 120.236 42.4166C120.197 43.1246 120.177 43.897 120.177 44.7338C120.177 44.7552 120.177 44.7981 120.177 44.841C120.216 51.5137 123.617 54.968 126.123 51.4707C126.74 50.6125 127.436 47.9521 127.993 45.4418C128.291 51.6853 132.448 54.453 134.874 51.0631C136.147 49.3038 137.281 46.4287 137.738 44.8839C138.077 43.7039 137.917 42.9744 137.917 42.9744Z" fill="#780C92"/>
<path d="M153.864 44.1545C153.864 44.1545 150.364 55.9549 147.838 49.5827C146.187 45.4203 148.196 40.6143 148.136 39.1554C148.077 37.7178 145.451 37.5891 145.451 37.5891C145.451 37.5891 140.658 42.7813 139.564 47.5015C139.564 47.523 139.544 47.5659 139.544 47.5873C139.743 44.5836 140.241 41.4082 140.201 40.2281C140.161 38.0826 137.317 37.9109 137.178 37.9753C137.178 37.9753 136.084 41.6442 136.004 47.5444C135.964 49.926 136.362 54.496 139.763 52.6937C139.763 52.6937 138.769 48.8961 141.732 44.0472C142.786 42.2878 143.681 41.2365 144.397 40.5714C144.238 41.3867 144.099 42.3951 144 43.5966V43.6181C143.96 44.3047 143.94 45.077 143.94 45.9138C143.94 45.9353 143.94 45.9782 143.94 46.0211C143.98 52.6937 148.335 55.7618 150.841 52.2431C152.094 50.4838 153.228 47.6088 153.685 46.064C154.043 44.8839 153.864 44.1545 153.864 44.1545Z" fill="#780C92"/>
<path d="M172.714 44.8625C172.714 44.8625 172.455 48.6172 169.591 52.2217C167.761 54.5174 165.454 54.4316 164.48 50.7198C164.102 49.3467 163.843 47.8877 163.704 46.3644C165.176 45.3989 167.204 43.5108 169.313 39.799C171.262 36.3662 173.33 31.9464 172.375 29.007C171.441 26.1319 169.014 25.9818 166.747 27.6982V27.6767C166.568 27.8269 166.389 27.9771 166.21 28.1273C166.11 28.2131 166.031 28.2989 165.931 28.3848C162.928 31.2812 161.496 34.9072 160.8 38.4688C159.985 37.3102 158.433 36.1087 155.808 37.5248C151.612 39.7776 150.876 48.231 152.149 50.3765C153.441 52.5221 157.717 50.2478 159.965 44.605C160.044 44.4334 160.104 44.2617 160.164 44.1116C160.164 44.2188 160.164 44.3261 160.164 44.4119C160.144 44.7338 160.144 45.0341 160.124 45.3345C160.124 45.4418 160.124 45.5491 160.124 45.6349C160.124 45.6349 160.124 45.6349 160.124 45.6563C160.124 47.2011 160.263 48.2739 160.522 49.0677C160.88 50.9344 161.496 52.5221 162.411 53.6807C167.662 60.1816 171.779 50.7413 172.415 48.0593C173.072 45.3774 172.714 44.8625 172.714 44.8625ZM171.62 28.492C171.978 29.9725 166.787 42.2664 163.664 45.8065C163.346 41.1936 164.161 36.1087 166.389 31.3671C168.994 27.1833 171.262 27.0974 171.62 28.492ZM156.902 47.008C154.615 48.4884 155.032 42.5668 157.141 40.2067C158.99 38.1255 160.104 38.7477 160.601 39.5845C160.442 40.5714 160.343 41.5369 160.263 42.4595C159.488 44.0472 158.254 46.1498 156.902 47.008Z" fill="#780C92"/>
<path d="M180.505 48.7888C180.286 48.8532 180.087 48.8961 179.888 48.939C181.201 46.9222 181.997 44.3261 181.897 41.6227C181.639 35.5509 175.771 34.285 173.365 37.2673C171.336 39.7776 170.919 42.6097 171.515 45.0127C170.322 48.0593 169.765 52.2002 173.604 52.7152C175.394 52.9726 177.243 52.05 178.715 50.4623C179.451 50.3336 180.187 50.0761 180.923 49.647C185.179 47.1797 185.159 44.0686 185.159 44.0686C185.159 44.0686 184.125 47.7161 180.505 48.7888ZM180.107 40.1423C180.664 43.7039 179.55 46.9651 178.079 48.9605C176.666 48.6386 175.831 47.5015 175.433 46.064C176.09 45.1843 176.706 44.5621 176.706 44.5621C176.706 44.5621 176.03 43.7254 175.254 42.9744C175.334 42.3951 175.453 41.8373 175.612 41.2794C176.647 37.9753 179.371 35.465 180.107 40.1423ZM174.419 50.634C173.922 50.2263 173.802 49.647 173.922 49.0034C174.717 49.69 175.632 50.1834 176.647 50.398C175.811 50.9987 175.016 51.1275 174.419 50.634Z" fill="#780C92"/>
<path d="M209.17 44.8625C209.17 44.8625 208.911 48.6172 206.047 52.2217C204.217 54.5174 201.91 54.4316 200.936 50.7198C200.558 49.3467 200.299 47.8877 200.16 46.3644C201.632 45.3989 203.661 43.5108 205.769 39.799C207.718 36.3662 209.786 31.9464 208.832 29.007C207.897 26.1319 205.47 25.9818 203.203 27.6982V27.6767C203.024 27.8269 202.845 27.9771 202.666 28.1273C202.567 28.2131 202.487 28.2989 202.388 28.3848C199.384 31.2812 197.952 34.9072 197.256 38.4688C196.441 37.3102 194.89 36.1087 192.264 37.5248C188.068 39.7776 187.332 48.231 188.605 50.3765C189.898 52.5221 194.174 50.2478 196.421 44.605C196.501 44.4334 196.56 44.2617 196.62 44.1116C196.62 44.2188 196.62 44.3261 196.62 44.4119C196.6 44.7338 196.6 45.0341 196.58 45.3345C196.58 45.4418 196.58 45.5491 196.58 45.6349C196.58 45.6349 196.58 45.6349 196.58 45.6563C196.58 47.2011 196.719 48.2739 196.978 49.0677C197.336 50.9344 197.952 52.5221 198.867 53.6807C204.118 60.1816 208.235 50.7413 208.871 48.0593C209.528 45.3774 209.17 44.8625 209.17 44.8625ZM208.076 28.492C208.434 29.9725 203.243 42.2664 200.12 45.8065C199.802 41.1936 200.618 36.1087 202.845 31.3671C205.451 27.1833 207.718 27.0974 208.076 28.492ZM193.358 47.008C191.071 48.4884 191.489 42.5668 193.597 40.2067C195.446 38.1255 196.56 38.7477 197.057 39.5845C196.898 40.5714 196.799 41.5369 196.719 42.4595C195.944 44.0472 194.711 46.1498 193.358 47.008Z" fill="#780C92"/>
<path d="M220.265 51.8411C220.265 51.8411 219.348 51.8411 217.649 47.3242C215.998 43.1619 219.407 39.7561 219.348 38.3186C219.288 36.8596 218.115 36.9455 218.115 36.9455C218.115 36.9455 217.518 37.5248 216.901 38.8335C216.345 37.632 214.714 35.2719 211.432 37.0527C207.236 39.3055 206.5 47.759 207.773 49.9045C209.065 52.05 213.341 49.7758 215.589 44.133C215.609 44.0901 215.629 44.0257 215.648 43.9828C215.609 44.5192 215.589 45.077 215.589 45.6778C215.589 52.4362 215.378 53.5395 220.265 51.8411ZM212.526 46.536C210.239 48.0164 210.656 42.0947 212.765 39.7347C214.873 37.3746 216.026 38.4902 216.384 39.4557C216.444 39.5845 216.484 39.6917 216.524 39.799C216.305 40.3998 216.106 41.1078 215.947 41.9016C215.151 43.4893 213.898 45.6563 212.526 46.536Z" fill="#780C92"/>
<line y1="-0.290254" x2="115.229" y2="-0.290254" transform="matrix(0.999931 0.0117288 -0.0101087 0.999949 70.9019 57.2134)" stroke="#780C92" stroke-width="0.580507"/>
<g filter="url(#filter2_d_323_1513)">
<path d="M246.839 14.563C247.606 11.5914 246.393 8.1343 244 6.37952C241.933 4.86339 239.437 4.84453 237.349 6.30287C236.289 7.03585 236.131 7.28196 235.297 9.08647C234.273 11.2952 233.26 15.1736 231.325 24.3552L230.069 30.2297L228.33 33.4241L226.584 36.5828L227.56 37.2988L228.555 38.0288L230.322 34.5831L232.12 31.1297L235.572 27.7727C241.459 22.0634 245.616 17.5919 246.286 16.2414C246.437 15.9595 246.683 15.2033 246.839 14.563ZM244.236 17.8783C242.266 20.2091 235.017 27.5161 235.339 26.816C235.389 26.6719 236.451 25.3369 237.676 23.8488C243.832 16.3437 245.302 13.9489 245.52 10.9069C245.643 9.18502 245.742 9.19781 246.222 11.0896C246.606 12.6101 246.406 14.4264 245.724 15.7985C245.545 16.1811 244.854 17.1234 244.236 17.8783ZM241.648 17.7318C239.735 20.2553 233.725 27.6865 233.695 27.5436C233.699 27.4862 234.272 26.5171 235.007 25.3949C241.3 15.6947 243.437 11.8563 244.397 8.57355C244.569 8.00474 244.615 8.06854 244.813 9.2408C245.239 11.7282 244.318 14.1934 241.648 17.7318ZM237.605 20.0516C233.763 26.1738 232.305 28.3964 232.384 28.001C232.553 27.1886 238.383 14.5214 239.735 11.9492C241.048 9.49949 241.566 8.73185 242.353 8.01023C243.518 6.93162 243.909 6.94708 243.751 8.03885C243.456 10.3295 242.204 12.764 237.605 20.0516ZM233.698 21.8677C234.482 19.3616 235.677 15.7384 236.4 13.7922C237.482 10.7799 237.811 10.1155 238.634 9.02786C239.666 7.70048 241.33 6.53533 242.109 6.62366C242.551 6.64552 242.535 6.72459 241.659 7.71276C240.389 9.13698 237.878 13.9701 235.224 19.9665C232.205 26.8428 232.092 27.0022 233.698 21.8677ZM232.213 23.3454C232.544 21.3838 234.631 12.766 235.247 10.7714C235.964 8.48852 236.632 7.58956 238.23 6.64761C239.062 6.14029 241.403 5.65271 240.768 6.09251C237.635 8.35527 236.949 9.63432 233.806 19.3792C232.317 23.9959 231.948 24.9333 232.213 23.3454Z" fill="#BF17E6"/>
<path d="M228.911 37.245C228.67 36.0986 227.729 35.4593 226.699 35.6991L225.946 35.8863L222.216 42.8449L218.486 49.8035L218.602 50.6795C218.702 51.4165 218.831 51.6385 219.429 52.0773C219.979 52.4805 220.312 52.5722 220.79 52.4377L221.43 52.2946L225.248 45.1712L229.066 38.0478L228.911 37.245ZM220.431 51.3838C219.876 51.5377 219.588 51.2757 219.553 50.5862C219.483 49.54 220.538 49.2937 220.92 50.2624C221.147 50.8885 220.993 51.2601 220.431 51.3838Z" fill="#FAD1EF"/>
</g>
<g filter="url(#filter3_d_323_1513)">
<path d="M220.054 130.27C219.04 130.413 218.479 131.804 219.177 132.61C222.686 136.863 230.678 145.639 232.966 140.522C235.742 134.522 228.898 129.836 220.054 130.27ZM221.372 122.848C220.722 123.347 220.779 124.334 221.432 124.694C222.909 125.48 225.189 126.47 226.586 126.047C228.795 125.509 229.416 123.069 228.043 121.68C226.81 120.452 224.855 120.231 221.372 122.848ZM217.479 138.276C216.74 137.883 215.996 138.667 216.234 139.402C216.417 140.009 216.655 140.744 216.862 141.574C217.48 144.065 218.251 147.257 220.311 146.876C222.371 146.495 221.565 142.539 219.73 140.22C218.978 139.286 218.1 138.731 217.479 138.276Z" fill="#FAD1EF"/>
</g>
<g filter="url(#filter4_d_323_1513)">
<path d="M62.1392 73.0409C62.1387 72.5468 61.5908 72.1881 61.2133 72.4689C59.2318 73.8691 55.0993 77.1169 57.1023 78.5437C59.4455 80.2614 61.8032 77.2958 62.1392 73.0409ZM65.1617 74.1542C64.9914 73.8112 64.5759 73.7742 64.3873 74.0629C63.9725 74.7176 63.4258 75.7424 63.5209 76.4381C63.6163 77.529 64.5987 77.9847 65.2591 77.4192C65.844 76.9098 66.0509 75.9895 65.1617 74.1542ZM58.9462 71.288C59.1536 70.9606 58.87 70.5536 58.549 70.6194C58.2847 70.6677 57.9637 70.7335 57.605 70.7779C56.5287 70.9112 55.1503 71.0715 55.189 72.081C55.2277 73.0905 56.9272 72.9633 58.0029 72.2371C58.4369 71.9389 58.7198 71.5553 58.9462 71.288Z" fill="#BF17E6"/>
</g>
</g>
<defs>
<filter id="filter0_d_323_1513" x="58.0304" y="57.4039" width="160.496" height="85.4387" filterUnits="userSpaceOnUse" color-interpolation-filters="sRGB">
<feFlood flood-opacity="0" result="BackgroundImageFix"/>
<feColorMatrix in="SourceAlpha" type="matrix" values="0 0 0 0 0 0 0 0 0 0 0 0 0 0 0 0 0 0 127 0" result="hardAlpha"/>
<feOffset dx="0.77401" dy="0.77401"/>
<feGaussianBlur stdDeviation="0.967512"/>
<feComposite in2="hardAlpha" operator="out"/>
<feColorMatrix type="matrix" values="0 0 0 0 0 0 0 0 0 0 0 0 0 0 0 0 0 0 0.3 0"/>
<feBlend mode="normal" in2="BackgroundImageFix" result="effect1_dropShadow_323_1513"/>
<feBlend mode="normal" in="SourceGraphic" in2="effect1_dropShadow_323_1513" result="shape"/>
</filter>
<filter id="filter1_d_323_1513" x="11.9645" y="3.16821" width="53.0693" height="69.3696" filterUnits="userSpaceOnUse" color-interpolation-filters="sRGB">
<feFlood flood-opacity="0" result="BackgroundImageFix"/>
<feColorMatrix in="SourceAlpha" type="matrix" values="0 0 0 0 0 0 0 0 0 0 0 0 0 0 0 0 0 0 127 0" result="hardAlpha"/>
<feOffset dx="0.77401" dy="0.77401"/>
<feGaussianBlur stdDeviation="0.967512"/>
<feComposite in2="hardAlpha" operator="out"/>
<feColorMatrix type="matrix" values="0 0 0 0 0 0 0 0 0 0 0 0 0 0 0 0 0 0 0.3 0"/>
<feBlend mode="normal" in2="BackgroundImageFix" result="effect1_dropShadow_323_1513"/>
<feBlend mode="normal" in="SourceGraphic" in2="effect1_dropShadow_323_1513" result="shape"/>
</filter>
<filter id="filter2_d_323_1513" x="217.324" y="4.06445" width="32.4526" height="51.1402" filterUnits="userSpaceOnUse" color-interpolation-filters="sRGB">
<feFlood flood-opacity="0" result="BackgroundImageFix"/>
<feColorMatrix in="SourceAlpha" type="matrix" values="0 0 0 0 0 0 0 0 0 0 0 0 0 0 0 0 0 0 127 0" result="hardAlpha"/>
<feOffset dx="0.77401" dy="0.77401"/>
<feGaussianBlur stdDeviation="0.967512"/>
<feComposite in2="hardAlpha" operator="out"/>
<feColorMatrix type="matrix" values="0 0 0 0 0 0 0 0 0 0 0 0 0 0 0 0 0 0 0.3 0"/>
<feBlend mode="normal" in2="BackgroundImageFix" result="effect1_dropShadow_323_1513"/>
<feBlend mode="normal" in="SourceGraphic" in2="effect1_dropShadow_323_1513" result="shape"/>
</filter>
<filter id="filter3_d_323_1513" x="215.027" y="119.639" width="21.2734" height="29.9775" filterUnits="userSpaceOnUse" color-interpolation-filters="sRGB">
<feFlood flood-opacity="0" result="BackgroundImageFix"/>
<feColorMatrix in="SourceAlpha" type="matrix" values="0 0 0 0 0 0 0 0 0 0 0 0 0 0 0 0 0 0 127 0" result="hardAlpha"/>
<feOffset dx="0.77401" dy="0.77401"/>
<feGaussianBlur stdDeviation="0.967512"/>
<feComposite in2="hardAlpha" operator="out"/>
<feColorMatrix type="matrix" values="0 0 0 0 0 0 0 0 0 0 0 0 0 0 0 0 0 0 0.3 0"/>
<feBlend mode="normal" in2="BackgroundImageFix" result="effect1_dropShadow_323_1513"/>
<feBlend mode="normal" in="SourceGraphic" in2="effect1_dropShadow_323_1513" result="shape"/>
</filter>
<filter id="filter4_d_323_1513" x="54.027" y="69.4513" width="14.4462" height="12.2973" filterUnits="userSpaceOnUse" color-interpolation-filters="sRGB">
<feFlood flood-opacity="0" result="BackgroundImageFix"/>
<feColorMatrix in="SourceAlpha" type="matrix" values="0 0 0 0 0 0 0 0 0 0 0 0 0 0 0 0 0 0 127 0" result="hardAlpha"/>
<feOffset dx="0.77401" dy="0.77401"/>
<feGaussianBlur stdDeviation="0.967512"/>
<feComposite in2="hardAlpha" operator="out"/>
<feColorMatrix type="matrix" values="0 0 0 0 0 0 0 0 0 0 0 0 0 0 0 0 0 0 0.3 0"/>
<feBlend mode="normal" in2="BackgroundImageFix" result="effect1_dropShadow_323_1513"/>
<feBlend mode="normal" in="SourceGraphic" in2="effect1_dropShadow_323_1513" result="shape"/>
</filter>
<clipPath id="clip0_323_1513">
<rect width="251.36" height="150.747" fill="white" transform="translate(0.640137)"/>
</clipPath>
</defs>
</svg>
