<svg width="30" height="30" viewBox="0 0 30 30" fill="none" xmlns="http://www.w3.org/2000/svg">
<path d="M15 1C12.2311 1 9.52431 1.82109 7.22202 3.35943C4.91973 4.89776 3.12532 7.08426 2.06569 9.64243C1.00607 12.2006 0.728819 15.0155 1.26901 17.7313C1.80921 20.447 3.14258 22.9416 5.10051 24.8995C7.05844 26.8574 9.55301 28.1908 12.2687 28.731C14.9845 29.2712 17.7994 28.9939 20.3576 27.9343C22.9157 26.8747 25.1022 25.0803 26.6406 22.778C28.1789 20.4757 29 17.7689 29 15C28.9961 11.2882 27.5198 7.72949 24.8952 5.10483C22.2705 2.48017 18.7118 1.00392 15 1ZM7.74154 24.3558C8.52061 23.1373 9.59386 22.1346 10.8624 21.4401C12.1309 20.7455 13.5538 20.3815 15 20.3815C16.4462 20.3815 17.8691 20.7455 19.1376 21.4401C20.4061 22.1346 21.4794 23.1373 22.2585 24.3558C20.1831 25.9698 17.6291 26.8461 15 26.8461C12.3709 26.8461 9.81686 25.9698 7.74154 24.3558ZM10.6923 13.9231C10.6923 13.0711 10.945 12.2382 11.4183 11.5298C11.8916 10.8215 12.5644 10.2693 13.3515 9.94329C14.1386 9.61725 15.0048 9.53194 15.8404 9.69815C16.676 9.86437 17.4436 10.2746 18.046 10.8771C18.6484 11.4795 19.0587 12.2471 19.2249 13.0827C19.3911 13.9183 19.3058 14.7844 18.9798 15.5716C18.6538 16.3587 18.1016 17.0315 17.3932 17.5048C16.6848 17.9781 15.852 18.2308 15 18.2308C13.8575 18.2308 12.7619 17.7769 11.954 16.9691C11.1462 16.1612 10.6923 15.0655 10.6923 13.9231ZM23.8523 22.8629C22.6512 21.1224 20.9624 19.7759 18.9981 18.9927C20.0532 18.1616 20.8232 17.0224 21.2008 15.7335C21.5785 14.4446 21.5451 13.07 21.1054 11.8009C20.6656 10.5318 19.8413 9.43134 18.7471 8.65247C17.6529 7.87359 16.3431 7.45505 15 7.45505C13.6569 7.45505 12.3472 7.87359 11.2529 8.65247C10.1587 9.43134 9.33441 10.5318 8.89464 11.8009C8.45487 13.07 8.4215 14.4446 8.79918 15.7335C9.17685 17.0224 9.94679 18.1616 11.0019 18.9927C9.03764 19.7759 7.34878 21.1224 6.1477 22.8629C4.63 21.1562 3.63803 19.0471 3.29122 16.7897C2.94442 14.5323 3.25757 12.2227 4.19297 10.1392C5.12837 8.0556 6.64614 6.28685 8.56351 5.04591C10.4809 3.80497 12.7161 3.14475 15 3.14475C17.2839 3.14475 19.5191 3.80497 21.4365 5.04591C23.3539 6.28685 24.8716 8.0556 25.807 10.1392C26.7424 12.2227 27.0556 14.5323 26.7088 16.7897C26.362 19.0471 25.37 21.1562 23.8523 22.8629Z" fill="#FFF3A7"/>
</svg>
