<svg width="30" height="30" viewBox="0 0 30 30" fill="none" xmlns="http://www.w3.org/2000/svg">
<path d="M27.2451 25.255L21.6799 19.6875C23.3485 17.513 24.1276 14.7853 23.859 12.0575C23.5904 9.32983 22.2943 6.80641 20.2336 4.99917C18.1729 3.19193 15.502 2.2362 12.7625 2.32585C10.0231 2.41551 7.42031 3.54383 5.48219 5.48195C3.54408 7.42006 2.41575 10.0228 2.32609 12.7623C2.23644 15.5017 3.19217 18.1727 4.99941 20.2334C6.80665 22.2941 9.33008 23.5902 12.0578 23.8587C14.7855 24.1273 17.5133 23.3483 19.6877 21.6796L25.2576 27.2507C25.3884 27.3815 25.5437 27.4853 25.7146 27.5561C25.8856 27.6269 26.0687 27.6633 26.2537 27.6633C26.4387 27.6633 26.6219 27.6269 26.7928 27.5561C26.9637 27.4853 27.119 27.3815 27.2498 27.2507C27.3806 27.1199 27.4844 26.9646 27.5552 26.7937C27.626 26.6228 27.6624 26.4396 27.6624 26.2546C27.6624 26.0697 27.626 25.8865 27.5552 25.7156C27.4844 25.5447 27.3806 25.3894 27.2498 25.2586L27.2451 25.255ZM5.15646 13.125C5.15646 11.5489 5.62382 10.0082 6.49943 8.69776C7.37505 7.38731 8.6196 6.36593 10.0757 5.7628C11.5318 5.15966 13.134 5.00185 14.6798 5.30933C16.2256 5.6168 17.6455 6.37575 18.76 7.4902C19.8744 8.60465 20.6334 10.0245 20.9408 11.5703C21.2483 13.1161 21.0905 14.7184 20.4874 16.1745C19.8842 17.6306 18.8629 18.8751 17.5524 19.7507C16.242 20.6264 14.7013 21.0937 13.1252 21.0937C11.0124 21.0915 8.98681 20.2513 7.49285 18.7573C5.99889 17.2634 5.15863 15.2377 5.15646 13.125Z" fill="#FFF3A7"/>
</svg>
