<svg width="23" height="22" viewBox="0 0 23 22" fill="none" xmlns="http://www.w3.org/2000/svg">
<path d="M6.70569 12.0991C6.31835 13.0473 7.23706 14.2324 8.2847 14.0361C13.7267 13.1475 25.334 10.6655 22.0668 6.11158C18.2828 0.691254 10.786 4.24163 6.70569 12.0991ZM0.958453 7.22186C1.06192 8.03433 1.94319 8.48211 2.58321 8.09946C4.00676 7.21971 6.01002 5.7497 6.34849 4.32902C6.99683 2.14974 5.20257 0.384467 3.31109 0.870313C1.62914 1.31689 0.45256 2.89466 0.958453 7.22186ZM12.324 18.3578C11.6122 18.7976 11.9138 19.8357 12.6687 20.0007C13.2859 20.1477 14.0408 20.3127 14.8617 20.5529C17.3246 21.2734 20.4707 22.2161 21.1793 20.2445C21.888 18.2728 18.0645 16.9754 15.1368 17.3928C13.9514 17.5712 13.0301 18.0503 12.324 18.3578Z" fill="#780C92"/>
</svg>
