<svg width="18" height="25" viewBox="0 0 18 25" fill="none" xmlns="http://www.w3.org/2000/svg">
<path d="M11.0528 8.39042C12.0634 8.22355 13.0146 9.38268 12.5903 10.3605C10.5142 15.4688 5.51435 26.2341 1.80055 22.0363C-2.64306 17.1422 2.48488 10.6221 11.0528 8.39042ZM7.57503 1.70284C8.34418 1.98432 8.58487 2.94307 8.06953 3.48203C6.89536 4.67442 5.01684 6.30081 3.55646 6.31501C1.28759 6.46273 -0.03469 4.32097 0.859442 2.5848C1.66871 1.04419 3.46854 0.247754 7.57503 1.70284ZM15.906 15.2593C16.4931 14.6632 17.4381 15.1879 17.4312 15.9606C17.4374 16.595 17.4304 17.3677 17.4821 18.2215C17.6371 20.783 17.857 24.0599 15.7771 24.3125C13.6973 24.5652 13.2822 20.5489 14.3399 17.7873C14.7774 16.6711 15.4493 15.8794 15.906 15.2593Z" fill="#780C92"/>
</svg>
