<svg width="33" height="33" viewBox="0 0 33 33" fill="none" xmlns="http://www.w3.org/2000/svg">
<path fill-rule="evenodd" clip-rule="evenodd" d="M4.64062 3.60938H28.3594C28.9298 3.60938 29.3906 4.07021 29.3906 4.64062V28.3594C29.3906 28.9298 28.9298 29.3906 28.3594 29.3906H4.64062C4.07021 29.3906 3.60938 28.9298 3.60938 28.3594V4.64062C3.60938 4.07021 4.07021 3.60938 4.64062 3.60938ZM21.3952 27.3281H27.3281V5.67188H5.67188V27.3281H17.3766H21.3952Z" fill="#780C92"/>
<path d="M21.138 10.2689C20.4488 9.48206 20.069 8.47157 20.0693 7.42554H16.9537V19.9283C16.9296 20.6049 16.644 21.2457 16.1569 21.7159C15.6698 22.1861 15.0192 22.4489 14.3422 22.449C12.9104 22.449 11.7207 21.2794 11.7207 19.8275C11.7207 18.0932 13.3944 16.7925 15.1186 17.3269V14.1407C11.64 13.6769 8.59497 16.3791 8.59497 19.8275C8.59497 23.185 11.3778 25.5747 14.3321 25.5747C17.4981 25.5747 20.0693 23.0036 20.0693 19.8275V13.4853C21.3326 14.3926 22.8495 14.8794 24.4049 14.8768V11.7612C24.4049 11.7612 22.5093 11.8519 21.138 10.2689Z" fill="#780C92"/>
</svg>
