<svg width="13" height="13" viewBox="0 0 13 13" fill="none" xmlns="http://www.w3.org/2000/svg">
<path d="M11.5554 8.85669C11.4304 8.98169 11.2824 9.04419 11.1114 9.04419C10.9404 9.04419 10.7925 8.98169 10.6679 8.85669L7.00537 5.19419L3.33037 8.86919C3.2137 8.98586 3.06787 9.04419 2.89287 9.04419C2.71787 9.04419 2.56787 8.98169 2.44287 8.85669C2.31787 8.73169 2.25537 8.58369 2.25537 8.41269C2.25537 8.24169 2.31787 8.09386 2.44287 7.96919L6.65537 3.76919C6.70537 3.71919 6.75954 3.68369 6.81787 3.66269C6.8762 3.64169 6.9387 3.63136 7.00537 3.63169C7.07204 3.63169 7.13454 3.64219 7.19287 3.66319C7.2512 3.68419 7.30537 3.71952 7.35537 3.76919L11.5679 7.98169C11.6845 8.09836 11.7429 8.24219 11.7429 8.41319C11.7429 8.58419 11.6804 8.73202 11.5554 8.85669Z" fill="#17001D"/>
</svg>
