<svg width="33" height="33" viewBox="0 0 33 33" fill="none" xmlns="http://www.w3.org/2000/svg">
<path d="M26.9596 9.61812C26.8551 9.20837 26.5581 8.899 26.2185 8.80412C25.6163 8.635 22.6889 8.25 16.5014 8.25C10.3139 8.25 7.38788 8.635 6.7815 8.80412C6.446 8.89762 6.149 9.207 6.04312 9.61812C5.89325 10.2011 5.50137 12.6431 5.50137 16.5C5.50137 20.3555 5.89325 22.7975 6.04312 23.3833C6.14762 23.7916 6.44463 24.101 6.78288 24.1945C7.38788 24.365 10.3125 24.75 16.5 24.75C22.6875 24.75 25.6149 24.365 26.2199 24.1959C26.5554 24.1024 26.8524 23.793 26.9583 23.3819C27.1095 22.7989 27.5 20.35 27.5 16.5C27.5 12.65 27.1095 10.2025 26.9596 9.61812ZM29.623 8.93475C30.2514 11.385 30.2514 16.5 30.2514 16.5C30.2514 16.5 30.2514 21.615 29.623 24.0653C29.2738 25.4196 28.2521 26.4853 26.9583 26.8455C24.6084 27.5 16.5 27.5 16.5 27.5C16.5 27.5 8.39712 27.5 6.04312 26.8455C4.74375 26.4797 3.7235 25.4155 3.37838 24.0653C2.75 21.615 2.75 16.5 2.75 16.5C2.75 16.5 2.75 11.385 3.37838 8.93475C3.72763 7.58038 4.74925 6.51475 6.04312 6.1545C8.3985 5.5 16.5014 5.5 16.5014 5.5C16.5014 5.5 24.6084 5.5 26.9583 6.1545C28.2563 6.52025 29.2779 7.5845 29.623 8.93475ZM13.7514 21.3125V11.6875L22.0014 16.5L13.7514 21.3125Z" fill="#780C92"/>
</svg>
